<svg width="24" height="30" viewBox="0 0 24 30" fill="none" xmlns="http://www.w3.org/2000/svg">
<path d="M11.5772 30C5.19716 30 0.00866699 24.7517 0.00866699 18.3111C0.00866699 18.2356 0.00866699 4.65919 0.00866699 1.805V0H23.1379V1.805C23.1379 4.64346 23.1379 18.2057 23.1379 18.3111C23.1457 24.7517 17.9572 30 11.5772 30Z" fill="white"/>
<path d="M22.4859 1.80502V0.649658H0.668579V1.80502C0.668579 4.68909 0.668579 18.2356 0.668579 18.3112C0.668579 24.397 5.56135 29.3433 11.5851 29.3433C17.6081 29.3433 22.5008 24.397 22.5008 18.3112C22.493 18.2058 22.4859 4.62145 22.4859 1.80502ZM11.5772 28.6936C5.91842 28.6936 1.32137 24.0345 1.32137 18.3112C1.32137 18.1075 1.32137 4.0245 1.32137 1.30638H21.8331C21.8331 4.0245 21.8331 18.1075 21.8331 18.3112C21.8331 24.0345 17.2361 28.6936 11.5772 28.6936Z" fill="#B69B40"/>
<path d="M2.29968 10.5642V9.9216C2.29968 9.4615 2.52698 9.24207 3.02798 9.24207C3.17977 9.24207 3.35437 9.26487 3.46055 9.30263C3.4983 9.31757 3.50616 9.3333 3.50616 9.37105V9.57475C3.50616 9.61958 3.49043 9.62745 3.42987 9.6125C3.33864 9.5897 3.19471 9.56689 3.07359 9.56689C2.79281 9.56689 2.68664 9.68801 2.68664 9.96721V10.5335C2.68664 10.8127 2.79281 10.9259 3.08067 10.9259C3.22539 10.9259 3.36931 10.8882 3.47549 10.8504C3.4983 10.8434 3.54391 10.8504 3.52819 10.8961L3.49043 11.1147C3.48335 11.1603 3.46763 11.1753 3.42987 11.1831C3.3237 11.2209 3.17977 11.2437 3.01303 11.2437C2.50417 11.2437 2.29968 11.0471 2.29968 10.5642Z" fill="#B69B40"/>
<path d="M5.17436 9.31756V11.1753C5.17436 11.2059 5.15942 11.2209 5.12953 11.2209H5.08392C4.88651 11.2209 4.78033 11.1226 4.78033 10.9039V10.3903H4.18889V11.1753C4.18889 11.2059 4.17316 11.2209 4.14327 11.2209H4.09765C3.90811 11.2209 3.79407 11.1226 3.79407 10.9039V9.32543C3.79407 9.28768 3.80193 9.27981 3.83968 9.27981H4.14327C4.17316 9.27981 4.18889 9.29554 4.18889 9.32543V10.0883H4.78033V9.32543C4.78033 9.29554 4.79527 9.27981 4.82595 9.27981H5.12953C5.16728 9.27273 5.17436 9.28768 5.17436 9.31756Z" fill="#B69B40"/>
<path d="M5.38753 11.1753C5.56135 10.5107 5.72887 9.86185 5.89561 9.34827C5.91055 9.29557 5.94122 9.27277 6.00178 9.27277H6.32818C6.39582 9.27277 6.42649 9.29557 6.44143 9.34827C6.60817 9.86185 6.78277 10.5107 6.95737 11.1753C6.96524 11.206 6.94951 11.2209 6.91176 11.2209H6.61603C6.57828 11.2209 6.54761 11.206 6.54761 11.1753L6.47211 10.8355H5.87988C5.84999 10.9488 5.82718 11.062 5.80437 11.1832C5.79651 11.206 5.7737 11.2209 5.74381 11.2209H5.43236C5.39461 11.2209 5.37967 11.206 5.38753 11.1753ZM6.40368 10.5335C6.3502 10.2464 6.25975 9.89174 6.18346 9.59759H6.16852C6.09302 9.89174 6.00178 10.2464 5.9483 10.5335H6.40368Z" fill="#B69B40"/>
<path d="M7.15479 11.1753C7.15479 10.6546 7.17759 9.92162 7.21535 9.3176C7.21535 9.28771 7.23029 9.27277 7.26096 9.27277H7.56455C7.6023 9.27277 7.61724 9.27984 7.63297 9.31052L8.1033 10.2693H8.11037L8.55081 9.31052C8.56575 9.27984 8.5807 9.27277 8.61845 9.27277H8.92204C8.95271 9.27277 8.95979 9.28771 8.96765 9.3176C9.01327 9.92162 9.04394 10.6546 9.04394 11.1753C9.04394 11.206 9.02821 11.2209 8.99833 11.2209H8.70968C8.6798 11.2209 8.66407 11.206 8.66407 11.1753C8.66407 10.7152 8.65699 10.2166 8.64126 9.86893H8.62631L8.24722 10.6924C8.23149 10.7223 8.20947 10.7451 8.17093 10.7451H8.04981C8.01206 10.7451 7.99633 10.7223 7.97431 10.6924L7.57163 9.86893H7.55668C7.54882 10.2236 7.54882 10.6924 7.54882 11.1753C7.54882 11.206 7.53388 11.2209 7.50399 11.2209H7.21535C7.16973 11.2209 7.15479 11.206 7.15479 11.1753Z" fill="#B69B40"/>
<path d="M10.6137 9.8768V9.90669C10.6137 10.1332 10.5532 10.2992 10.4163 10.4053C10.3031 10.4958 10.1434 10.5414 9.92318 10.5414H9.73363V11.1902C9.73363 11.2209 9.71869 11.2359 9.68802 11.2359H9.6424C9.44578 11.2359 9.3396 11.1376 9.3396 10.9189V9.34041C9.3396 9.30266 9.35454 9.28772 9.39229 9.28772H9.9161C10.1583 9.28772 10.3101 9.32547 10.4163 9.40884C10.5453 9.48434 10.6137 9.61962 10.6137 9.8768ZM10.2197 9.8768C10.2197 9.75568 10.189 9.68804 10.1434 9.65029C10.0907 9.60468 10.0223 9.58973 9.88543 9.58973H9.7415V10.2236H9.86262C10.0223 10.2236 10.0907 10.2087 10.1434 10.156C10.189 10.1104 10.2118 10.0349 10.2118 9.89961L10.2197 9.8768Z" fill="#B69B40"/>
<path d="M10.7506 11.1753V10.9794C10.7506 10.9488 10.7656 10.9338 10.7962 10.9338H10.9928V9.55196H10.7962C10.7656 9.55196 10.7506 9.53702 10.7506 9.50635V9.31051C10.7506 9.27984 10.7656 9.26489 10.7962 9.26489H11.6C11.6307 9.26489 11.6527 9.27276 11.6456 9.31051L11.615 9.51421C11.6079 9.5441 11.5922 9.55983 11.5623 9.55983H11.3877V10.9417H11.5851C11.615 10.9417 11.6228 10.9488 11.6228 10.9865V11.1831C11.6228 11.213 11.6079 11.228 11.5772 11.228H10.7884C10.7656 11.2209 10.7427 11.206 10.7506 11.1753Z" fill="#B69B40"/>
<path d="M12.0554 11.0848C11.9335 10.9794 11.8658 10.8127 11.8658 10.6019V9.89958C11.8658 9.65734 11.9563 9.47645 12.1159 9.37106C12.2371 9.28769 12.3967 9.24994 12.5784 9.24994C12.7609 9.24994 12.9426 9.29556 13.0637 9.386C13.2084 9.49139 13.2988 9.66521 13.2988 9.89958V10.6019C13.2988 10.8355 13.2155 11.0093 13.0637 11.1226C12.9426 11.213 12.7758 11.2586 12.5784 11.2586C12.3582 11.2508 12.1765 11.1902 12.0554 11.0848ZM12.8136 10.8505C12.8741 10.7907 12.9048 10.6845 12.9048 10.5642V9.94441C12.9048 9.80127 12.8671 9.71082 12.8065 9.65734C12.753 9.60465 12.6696 9.58184 12.5784 9.58184C12.4872 9.58184 12.3967 9.60465 12.3432 9.65734C12.2827 9.7179 12.252 9.80127 12.252 9.94441V10.5642C12.252 10.6845 12.2827 10.7907 12.3432 10.8505C12.3967 10.9039 12.4801 10.926 12.5784 10.926C12.6775 10.926 12.768 10.8961 12.8136 10.8505Z" fill="#B69B40"/>
<path d="M15.0362 9.3176V11.1753C15.0362 11.206 15.0134 11.2209 14.9905 11.2209H14.7939C14.7404 11.2209 14.7098 11.1981 14.6948 11.1682L13.9972 9.96724H13.9823V11.1753C13.9823 11.206 13.9665 11.2209 13.9366 11.2209H13.9209C13.7392 11.2209 13.6401 11.1226 13.6401 10.904V9.3176C13.6401 9.28771 13.648 9.27277 13.6787 9.27277H13.8981C13.9437 9.27277 13.9665 9.28771 13.9823 9.32546L14.672 10.5107H14.6877V9.3176C14.6877 9.28771 14.7027 9.27277 14.7255 9.27277H14.9835C15.0212 9.27277 15.0362 9.28771 15.0362 9.3176Z" fill="#B69B40"/>
<path d="M15.4231 11.1831C15.3775 11.1682 15.3704 11.1454 15.3625 11.1147L15.3169 10.8662C15.309 10.8284 15.3397 10.8206 15.3775 10.8355C15.4766 10.8811 15.6504 10.9259 15.7951 10.9259C16.0145 10.9259 16.1286 10.8355 16.1286 10.6924V10.6774C16.1286 10.5414 16.068 10.458 15.8785 10.3903L15.7566 10.3447C15.4994 10.2543 15.3476 10.0805 15.3476 9.7934V9.77845C15.3476 9.42375 15.6205 9.24207 16.0145 9.24207C16.1286 9.24207 16.2654 9.26487 16.3559 9.28768C16.4015 9.30263 16.4094 9.32543 16.4094 9.35532V9.55981C16.4094 9.60464 16.3787 9.6125 16.3338 9.60464C16.2426 9.58183 16.1435 9.56689 16.0303 9.56689C15.8557 9.56689 15.7345 9.61958 15.7345 9.77845V9.78632C15.7345 9.9216 15.7951 9.9971 15.954 10.0506L16.0908 10.1033C16.3944 10.2165 16.5234 10.3675 16.5234 10.6467V10.6696C16.5234 11.0172 16.2725 11.2437 15.8478 11.2437C15.7039 11.2508 15.5371 11.2209 15.4231 11.1831Z" fill="#B69B40"/>
<path d="M18.1539 9.31756V11.1753C18.1539 11.2059 18.1389 11.2209 18.1082 11.2209H18.0634C17.866 11.2209 17.7598 11.1226 17.7598 10.9039V10.3903H17.1676V11.1753C17.1676 11.2059 17.1526 11.2209 17.1228 11.2209H17.0771C16.8797 11.2209 16.7736 11.1226 16.7736 10.9039V9.32543C16.7736 9.28768 16.7814 9.27981 16.8192 9.27981H17.1228C17.1526 9.27981 17.1676 9.29554 17.1676 9.32543V10.0883H17.7598V9.32543C17.7598 9.29554 17.7748 9.27981 17.8054 9.27981H18.1082C18.1389 9.27273 18.1539 9.28768 18.1539 9.31756Z" fill="#B69B40"/>
<path d="M18.4275 11.1753V10.9794C18.4275 10.9488 18.4424 10.9338 18.4723 10.9338H18.6697V9.55196H18.4723C18.4424 9.55196 18.4275 9.53702 18.4275 9.50635V9.31051C18.4275 9.27984 18.4424 9.26489 18.4723 9.26489H19.2769C19.3068 9.26489 19.3296 9.27276 19.3225 9.31051L19.2997 9.50635C19.2918 9.53702 19.2769 9.55196 19.2462 9.55196H19.0645V10.9338H19.262C19.2918 10.9338 19.2997 10.9417 19.2997 10.9794V11.1753C19.2997 11.206 19.284 11.2209 19.2541 11.2209H18.4652C18.4424 11.2209 18.4275 11.206 18.4275 11.1753Z" fill="#B69B40"/>
<path d="M20.8547 9.8768V9.90669C20.8547 10.1332 20.7941 10.2992 20.6651 10.4053C20.5511 10.4958 20.3922 10.5414 20.172 10.5414H19.9825V11.1902C19.9825 11.2209 19.9675 11.2359 19.9368 11.2359H19.8834C19.6938 11.2359 19.5806 11.1376 19.5806 10.9189V9.34041C19.5806 9.30266 19.5955 9.28772 19.6333 9.28772H20.1641C20.4072 9.28772 20.559 9.32547 20.6651 9.40884C20.7792 9.48434 20.8547 9.61962 20.8547 9.8768ZM20.4528 9.8768C20.4528 9.75568 20.4221 9.68804 20.3765 9.65029C20.3238 9.60468 20.2554 9.58973 20.1185 9.58973H19.9746V10.2236H20.0965C20.2475 10.2236 20.3238 10.2087 20.3765 10.156C20.4221 10.1104 20.4449 10.0349 20.4449 9.89961V9.8768H20.4528Z" fill="#B69B40"/>
<path d="M2.29968 12.1946C2.29968 12.2701 2.36024 12.3385 2.44361 12.3385H20.7107C20.7862 12.3385 20.8546 12.2701 20.8546 12.1946C20.8546 12.1191 20.7941 12.0515 20.7107 12.0515H2.44361C2.36811 12.0515 2.29968 12.1191 2.29968 12.1946Z" fill="#B69B40"/>
<path d="M11.2587 26.2775C10.9858 26.2775 10.7577 26.0581 10.7577 25.7789V23.0608H12.7153V23.808H11.5623V24.2917H12.6091V25.0388H11.5623V26.2775H11.2587ZM8.27002 25.7789C8.27002 26.051 8.48945 26.2775 8.77023 26.2775H10.2119V25.5375H9.07382V25.0388H10.1206V24.2917H9.07382V23.808H10.2197V23.0608H8.27002V25.7789ZM15.0134 26.2775V25.5375H14.0122V23.0679H13.2084V25.7868C13.2084 26.0581 13.4278 26.2846 13.7086 26.2846H15.0134V26.2775Z" fill="#283271"/>
<path d="M12.996 16.9819C12.6617 16.9819 12.3888 17.2541 12.3888 17.586C12.3888 17.9186 12.6617 18.19 12.996 18.19C13.3294 18.19 13.6024 17.9186 13.6024 17.586C13.6024 17.2541 13.3373 16.9819 12.996 16.9819Z" fill="#B69B40"/>
<path d="M12.2977 15.9249C11.9941 15.9249 11.7518 16.1664 11.7518 16.4684C11.7518 16.7704 11.9941 17.0126 12.2977 17.0126C12.6012 17.0126 12.8443 16.7704 12.8443 16.4684C12.8443 16.1664 12.6012 15.9249 12.2977 15.9249Z" fill="#B69B40"/>
<path d="M13.383 15.3736C13.0865 15.3736 12.8513 15.608 12.8513 15.9021C12.8513 16.1971 13.0865 16.4306 13.383 16.4306C13.6787 16.4306 13.9139 16.1971 13.9139 15.9021C13.9139 15.608 13.6708 15.3736 13.383 15.3736Z" fill="#B69B40"/>
<path d="M11.5693 15.1699C11.3192 15.1699 11.1218 15.3736 11.1218 15.615C11.1218 15.8573 11.3271 16.061 11.5693 16.061C11.8124 16.061 12.0169 15.8573 12.0169 15.615C12.0169 15.3736 11.8124 15.1699 11.5693 15.1699Z" fill="#B69B40"/>
<path d="M10.7506 14.8002C10.5453 14.8002 10.3785 14.9662 10.3785 15.1699C10.3785 15.3736 10.5453 15.5395 10.7506 15.5395C10.955 15.5395 11.1218 15.3736 11.1218 15.1699C11.1218 14.9662 10.955 14.8002 10.7506 14.8002Z" fill="#B69B40"/>
<path d="M9.99164 14.709C9.83277 14.709 9.69592 14.838 9.69592 15.0039C9.69592 15.1699 9.82491 15.2981 9.99164 15.2981C10.1584 15.2981 10.2874 15.1699 10.2874 15.0039C10.2874 14.838 10.1513 14.709 9.99164 14.709Z" fill="#B69B40"/>
<path d="M10.9252 14.1734C10.7655 14.1734 10.6444 14.3016 10.6444 14.4526C10.6444 14.6036 10.7734 14.7318 10.9252 14.7318C11.0762 14.7318 11.2052 14.6036 11.2052 14.4526C11.2052 14.3016 11.0762 14.1734 10.9252 14.1734Z" fill="#B69B40"/>
<path d="M11.6306 13.637C11.4788 13.637 11.3499 13.7581 11.3499 13.9162C11.3499 14.0751 11.471 14.1962 11.6306 14.1962C11.7895 14.1962 11.9106 14.0751 11.9106 13.9162C11.9106 13.7581 11.7816 13.637 11.6306 13.637Z" fill="#B69B40"/>
<path d="M11.0085 13.6826C10.8866 13.6826 10.7883 13.7801 10.7883 13.9013C10.7883 14.0224 10.8866 14.1207 11.0085 14.1207C11.1297 14.1207 11.228 14.0224 11.228 13.9013C11.228 13.7801 11.1297 13.6826 11.0085 13.6826Z" fill="#B69B40"/>
<path d="M10.4697 13.7959C10.3636 13.7959 10.2723 13.8863 10.2723 13.9917C10.2723 14.0979 10.3636 14.1884 10.4697 14.1884C10.5759 14.1884 10.6672 14.0979 10.6672 13.9917C10.6672 13.8863 10.583 13.7959 10.4697 13.7959Z" fill="#B69B40"/>
<path d="M10.2197 14.2261C10.0978 14.2261 10.0066 14.3244 10.0066 14.4376C10.0066 14.5509 10.1057 14.6492 10.2197 14.6492C10.333 14.6492 10.4321 14.5509 10.4321 14.4376C10.4321 14.3244 10.3409 14.2261 10.2197 14.2261Z" fill="#B69B40"/>
<path d="M9.53622 14.2788C9.43005 14.2788 9.3396 14.3693 9.3396 14.4754C9.3396 14.5808 9.43005 14.6713 9.53622 14.6713C9.6424 14.6713 9.73363 14.5808 9.73363 14.4754C9.73363 14.3693 9.6424 14.2867 9.53622 14.2788Z" fill="#B69B40"/>
<path d="M9.86268 14.0145C9.77931 14.0145 9.71875 14.083 9.71875 14.1585C9.71875 14.234 9.78717 14.3016 9.86268 14.3016C9.93897 14.3016 10.0066 14.234 10.0066 14.1585C10.0066 14.083 9.93897 14.0145 9.86268 14.0145Z" fill="#B69B40"/>
<path d="M9.05885 14.4904C8.98256 14.4904 8.922 14.5509 8.922 14.6264C8.922 14.7019 8.98256 14.7625 9.05885 14.7625C9.13435 14.7625 9.19491 14.7019 9.19491 14.6264C9.19491 14.5509 9.13435 14.4904 9.05885 14.4904Z" fill="#B69B40"/>
<path d="M9.32391 14.7468C9.19492 14.7468 9.08875 14.8529 9.08875 14.9811C9.08875 15.1093 9.19492 15.2155 9.32391 15.2155C9.45289 15.2155 9.55907 15.1093 9.55907 14.9811C9.55907 14.8529 9.45289 14.7468 9.32391 14.7468Z" fill="#B69B40"/>
<path d="M8.74033 14.8152C8.64123 14.8152 8.55786 14.8978 8.55786 14.9961C8.55786 15.0944 8.64123 15.1778 8.74033 15.1778C8.83864 15.1778 8.92201 15.0944 8.92201 14.9961C8.92201 14.8978 8.8465 14.8152 8.74033 14.8152Z" fill="#B69B40"/>
<path d="M8.36038 15.1471C8.29274 15.1471 8.23926 15.1998 8.23926 15.2682C8.23926 15.3359 8.29274 15.3885 8.36038 15.3885C8.4288 15.3885 8.48228 15.3359 8.48228 15.2682C8.48228 15.1998 8.4288 15.1471 8.36038 15.1471Z" fill="#B69B40"/>
<path d="M12.5178 14.709C12.2748 14.709 12.0703 14.9056 12.0703 15.1549C12.0703 15.4042 12.2677 15.6001 12.5178 15.6001C12.7679 15.6001 12.9653 15.4042 12.9653 15.1549C12.9653 14.9056 12.7609 14.709 12.5178 14.709Z" fill="#B69B40"/>
<path d="M14.1561 16.3402C13.8454 16.3402 13.5953 16.5895 13.5953 16.8994C13.5953 17.2085 13.8454 17.4578 14.1561 17.4578C14.4676 17.4578 14.7177 17.2085 14.7177 16.8994C14.7177 16.5895 14.4676 16.3402 14.1561 16.3402Z" fill="#B69B40"/>
<path d="M14.7711 15.3665C14.5053 15.3665 14.285 15.5852 14.285 15.8494C14.285 16.1137 14.5053 16.3331 14.7711 16.3331C15.0361 16.3331 15.2564 16.1137 15.2564 15.8494C15.2564 15.5852 15.0361 15.3665 14.7711 15.3665Z" fill="#B69B40"/>
<path d="M14.0728 14.558C13.8227 14.558 13.6182 14.7625 13.6182 15.011C13.6182 15.2603 13.8227 15.464 14.0728 15.464C14.3236 15.464 14.5281 15.2603 14.5281 15.011C14.5281 14.7625 14.3236 14.558 14.0728 14.558Z" fill="#B69B40"/>
<path d="M13.2234 14.0067C12.9882 14.0067 12.8065 14.1962 12.8065 14.4227C12.8065 14.6492 12.9961 14.838 13.2234 14.838C13.4507 14.838 13.6402 14.6492 13.6402 14.4227C13.6402 14.1962 13.4585 14.0067 13.2234 14.0067Z" fill="#B69B40"/>
<path d="M12.3739 13.7275C12.1765 13.7275 12.0247 13.8863 12.0247 14.0751C12.0247 14.2639 12.1843 14.4227 12.3739 14.4227C12.5634 14.4227 12.7223 14.2639 12.7223 14.0751C12.7223 13.8863 12.5713 13.7275 12.3739 13.7275Z" fill="#B69B40"/>
<path d="M11.6684 14.3244C11.4631 14.3244 11.2964 14.4904 11.2964 14.6941C11.2964 14.8978 11.4631 15.0645 11.6684 15.0645C11.8729 15.0645 12.0396 14.8978 12.0396 14.6941C12.0396 14.4904 11.8729 14.3244 11.6684 14.3244Z" fill="#B69B40"/>
<path d="M11.7668 19.3155C11.7668 19.6474 11.4939 19.9195 11.1604 19.9195C10.8261 19.9195 10.5532 19.6474 10.5532 19.3155C10.5532 18.9828 10.8261 18.7115 11.1604 18.7115C11.4939 18.7115 11.7668 18.9828 11.7668 19.3155Z" fill="#283271"/>
<path d="M12.4801 18.7264C12.1765 18.7264 11.9335 18.9678 11.9335 19.2698C11.9335 19.5719 12.1765 19.8141 12.4801 19.8141C12.7837 19.8141 13.0259 19.5719 13.0259 19.2698C13.0259 18.9678 12.7837 18.7264 12.4801 18.7264Z" fill="#283271"/>
<path d="M12.4344 19.9573C12.1387 19.9573 11.9036 20.1917 11.9036 20.4858C11.9036 20.7799 12.1387 21.0143 12.4344 21.0143C12.7302 21.0143 12.9653 20.7799 12.9653 20.4858C12.9653 20.1917 12.7223 19.9573 12.4344 19.9573Z" fill="#283271"/>
<path d="M13.5796 18.6132C13.3295 18.6132 13.1321 18.8169 13.1321 19.0583C13.1321 19.3006 13.3374 19.5043 13.5796 19.5043C13.8226 19.5043 14.0271 19.3006 14.0271 19.0583C14.0271 18.8169 13.8305 18.6132 13.5796 18.6132Z" fill="#283271"/>
<path d="M14.3842 18.2128C14.1789 18.2128 14.0122 18.3788 14.0122 18.5833C14.0122 18.787 14.1789 18.9529 14.3842 18.9529C14.5887 18.9529 14.7554 18.787 14.7554 18.5833C14.7554 18.3788 14.5887 18.2128 14.3842 18.2128Z" fill="#283271"/>
<path d="M14.9151 17.722C14.7554 17.722 14.6194 17.8502 14.6194 18.017C14.6194 18.1829 14.7484 18.3111 14.9151 18.3111C15.0818 18.3111 15.2108 18.1829 15.2108 18.017C15.2108 17.8502 15.074 17.722 14.9151 17.722Z" fill="#283271"/>
<path d="M14.9229 18.8098C14.7632 18.8098 14.6421 18.938 14.6421 19.089C14.6421 19.24 14.7711 19.3682 14.9229 19.3682C15.0739 19.3682 15.2029 19.24 15.2029 19.089C15.2029 18.938 15.0739 18.8098 14.9229 18.8098Z" fill="#283271"/>
<path d="M15.0361 19.693C14.8844 19.693 14.7554 19.8141 14.7554 19.9722C14.7554 20.1311 14.8773 20.2514 15.0361 20.2514C15.1958 20.2514 15.3169 20.1311 15.3169 19.9722C15.3169 19.8141 15.1879 19.693 15.0361 19.693Z" fill="#283271"/>
<path d="M15.3626 19.225C15.2414 19.225 15.1423 19.3226 15.1423 19.4437C15.1423 19.5648 15.2414 19.6623 15.3626 19.6623C15.4837 19.6623 15.5828 19.5648 15.5828 19.4437C15.5828 19.3226 15.4837 19.225 15.3626 19.225Z" fill="#283271"/>
<path d="M15.5443 18.7343C15.4381 18.7343 15.3477 18.8247 15.3477 18.9301C15.3477 19.0363 15.4381 19.1267 15.5443 19.1267C15.6505 19.1267 15.7417 19.0363 15.7417 18.9301C15.7417 18.8247 15.6583 18.7343 15.5443 18.7343Z" fill="#283271"/>
<path d="M15.2863 18.2812C15.1652 18.2812 15.074 18.3788 15.074 18.492C15.074 18.6053 15.1731 18.7036 15.2863 18.7036C15.4004 18.7036 15.4995 18.6053 15.4995 18.492C15.4995 18.3788 15.4004 18.2812 15.2863 18.2812Z" fill="#283271"/>
<path d="M15.5977 17.6921C15.4915 17.6921 15.4003 17.7826 15.4003 17.888C15.4003 17.9942 15.4836 18.0846 15.5977 18.0846C15.7117 18.0846 15.7951 17.9942 15.7951 17.888C15.7951 17.7826 15.7039 17.6921 15.5977 17.6921Z" fill="#283271"/>
<path d="M15.7189 18.175C15.6355 18.175 15.575 18.2435 15.575 18.319C15.575 18.3945 15.6434 18.4621 15.7189 18.4621C15.7952 18.4621 15.8636 18.3945 15.8636 18.319C15.8636 18.2435 15.7952 18.175 15.7189 18.175Z" fill="#283271"/>
<path d="M15.7039 17.269C15.6284 17.269 15.567 17.3296 15.567 17.4051C15.567 17.4806 15.6284 17.5412 15.7039 17.5412C15.7794 17.5412 15.8407 17.4806 15.8407 17.4051C15.8407 17.3296 15.7794 17.269 15.7039 17.269Z" fill="#283271"/>
<path d="M15.2642 17.2085C15.1352 17.2085 15.0291 17.3147 15.0291 17.4429C15.0291 17.5711 15.1352 17.6765 15.2642 17.6765C15.3932 17.6765 15.4994 17.5711 15.4994 17.4429C15.4994 17.3147 15.3932 17.2085 15.2642 17.2085Z" fill="#283271"/>
<path d="M15.5372 16.7554C15.4381 16.7554 15.3547 16.8388 15.3547 16.9371C15.3547 17.0346 15.4381 17.118 15.5372 17.118C15.6355 17.118 15.7189 17.0346 15.7189 16.9371C15.7189 16.8388 15.6355 16.7554 15.5372 16.7554Z" fill="#283271"/>
<path d="M15.4916 16.3551C15.4232 16.3551 15.3705 16.4086 15.3705 16.4762C15.3705 16.5439 15.4232 16.5973 15.4916 16.5973C15.56 16.5973 15.6127 16.5439 15.6127 16.4762C15.6127 16.4086 15.56 16.3551 15.4916 16.3551Z" fill="#283271"/>
<path d="M13.519 19.678C13.2768 19.678 13.0715 19.8739 13.0715 20.1232C13.0715 20.3725 13.2689 20.5691 13.519 20.5691C13.7692 20.5691 13.9666 20.3725 13.9666 20.1232C13.9666 19.8739 13.7621 19.678 13.519 19.678Z" fill="#283271"/>
<path d="M11.1753 20.1004C10.8639 20.1004 10.6138 20.3497 10.6138 20.6596C10.6138 20.9687 10.8639 21.218 11.1753 21.218C11.486 21.218 11.7369 20.9687 11.7369 20.6596C11.7369 20.3497 11.486 20.1004 11.1753 20.1004Z" fill="#283271"/>
<path d="M11.7817 21.2259C11.5166 21.2259 11.2964 21.4445 11.2964 21.7088C11.2964 21.9731 11.5166 22.1925 11.7817 22.1925C12.0475 22.1925 12.2677 21.9731 12.2677 21.7088C12.2677 21.4445 12.0554 21.2259 11.7817 21.2259Z" fill="#283271"/>
<path d="M12.867 21.082C12.6161 21.082 12.4116 21.2865 12.4116 21.535C12.4116 21.7843 12.6161 21.9888 12.867 21.9888C13.1171 21.9888 13.3216 21.7843 13.3216 21.535C13.3216 21.2865 13.1171 21.082 12.867 21.082Z" fill="#283271"/>
<path d="M13.792 20.6746C13.5568 20.6746 13.3751 20.8633 13.3751 21.0898C13.3751 21.3163 13.5647 21.5051 13.792 21.5051C14.02 21.5051 14.2096 21.3163 14.2096 21.0898C14.2096 20.8633 14.0271 20.6746 13.792 20.6746Z" fill="#283271"/>
<path d="M14.5203 20.1838C14.3237 20.1838 14.1719 20.3426 14.1719 20.5314C14.1719 20.7202 14.3307 20.8783 14.5203 20.8783C14.7098 20.8783 14.8695 20.7202 14.8695 20.5314C14.8695 20.3426 14.7177 20.1838 14.5203 20.1838Z" fill="#283271"/>
<path d="M14.3456 19.2549C14.1411 19.2549 13.9744 19.4209 13.9744 19.6246C13.9744 19.8291 14.1411 19.995 14.3456 19.995C14.5509 19.995 14.7176 19.8291 14.7176 19.6246C14.7176 19.4209 14.543 19.2549 14.3456 19.2549Z" fill="#283271"/>
<path d="M10.576 16.2576C10.2418 16.2576 9.96885 16.5289 9.96885 16.8616C9.96885 17.1935 10.2418 17.4656 10.576 17.4656C10.9095 17.4656 11.1824 17.1935 11.1824 16.8616C11.1824 16.5289 10.9095 16.2576 10.576 16.2576ZM9.95391 17.4877C9.65032 17.4877 9.40729 17.7299 9.40729 18.0319C9.40729 18.3339 9.65032 18.5754 9.95391 18.5754C10.2575 18.5754 10.4997 18.3339 10.4997 18.0319C10.4927 17.7299 10.2496 17.4877 9.95391 17.4877ZM8.91495 16.8459C8.61844 16.8459 8.38328 17.0803 8.38328 17.3744C8.38328 17.6693 8.61844 17.9037 8.91495 17.9037C9.21067 17.9037 9.44583 17.6693 9.44583 17.3744C9.44583 17.0803 9.21067 16.8459 8.91495 16.8459ZM9.5819 18.6359C9.33179 18.6359 9.13438 18.8396 9.13438 19.0811C9.13438 19.3225 9.33966 19.5341 9.5819 19.5341C9.82492 19.5341 10.0294 19.3304 10.0294 19.089C10.0294 18.8475 9.83279 18.6359 9.5819 18.6359ZM9.59763 19.6403C9.39235 19.6403 9.22561 19.8062 9.22561 20.0099C9.22561 20.2136 9.39235 20.3804 9.59763 20.3804C9.80211 20.3804 9.96885 20.2136 9.96885 20.0099C9.96885 19.8062 9.80211 19.6403 9.59763 19.6403ZM9.82492 20.463C9.65819 20.463 9.5292 20.5912 9.5292 20.7579C9.5292 20.9238 9.65819 21.052 9.82492 21.052C9.98458 21.052 10.1206 20.9238 10.1206 20.7579C10.1206 20.5912 9.99166 20.463 9.82492 20.463ZM8.89214 19.9423C8.73248 19.9423 8.61136 20.0705 8.61136 20.2215C8.61136 20.3725 8.74035 20.5007 8.89214 20.5007C9.04393 20.5007 9.17213 20.3725 9.17213 20.2215C9.17213 20.0626 9.04393 19.9423 8.89214 19.9423ZM8.06475 19.6025C7.91296 19.6025 7.78397 19.7229 7.78397 19.8817C7.78397 20.0406 7.90588 20.161 8.06475 20.161C8.22441 20.161 8.34553 20.0406 8.34553 19.8817C8.34553 19.7229 8.22441 19.6025 8.06475 19.6025ZM8.36047 20.2066C8.23935 20.2066 8.14104 20.3049 8.14104 20.4252C8.14104 20.5463 8.23935 20.6446 8.36047 20.6446C8.48238 20.6446 8.58069 20.5463 8.58069 20.4252C8.58069 20.3049 8.48238 20.2066 8.36047 20.2066ZM8.70967 20.6446C8.6035 20.6446 8.51227 20.7351 8.51227 20.8405C8.51227 20.9467 8.6035 21.0371 8.70967 21.0371C8.81585 21.0371 8.90708 20.9467 8.90708 20.8405C8.90708 20.7351 8.82372 20.6446 8.70967 20.6446ZM9.22561 20.6218C9.10449 20.6218 9.01326 20.7201 9.01326 20.8334C9.01326 20.9467 9.11157 21.0442 9.22561 21.0442C9.33966 21.0442 9.43797 20.9467 9.43797 20.8334C9.43797 20.7201 9.33966 20.6218 9.22561 20.6218ZM9.6047 21.2109C9.49853 21.2109 9.40729 21.2935 9.40729 21.4068C9.40729 21.52 9.49853 21.6034 9.6047 21.6034C9.71088 21.6034 9.80211 21.5129 9.80211 21.4068C9.80211 21.2935 9.71088 21.2109 9.6047 21.2109ZM9.16505 21.1354C9.08169 21.1354 9.02113 21.2031 9.02113 21.2786C9.02113 21.3541 9.08876 21.4217 9.16505 21.4217C9.24056 21.4217 9.30898 21.3541 9.30898 21.2786C9.30898 21.2031 9.24056 21.1354 9.16505 21.1354ZM9.96177 21.6034C9.88548 21.6034 9.82492 21.6639 9.82492 21.7394C9.82492 21.8149 9.88548 21.8755 9.96177 21.8755C10.0373 21.8755 10.0978 21.8149 10.0978 21.7394C10.0978 21.6639 10.0373 21.6034 9.96177 21.6034ZM10.1435 21.1047C10.0145 21.1047 9.90829 21.2109 9.90829 21.3391C9.90829 21.4673 10.0145 21.5735 10.1435 21.5735C10.2724 21.5735 10.3786 21.4673 10.3786 21.3391C10.3786 21.2109 10.2803 21.1047 10.1435 21.1047ZM10.4549 21.649C10.3558 21.649 10.2724 21.7316 10.2724 21.8299C10.2724 21.9282 10.3558 22.0108 10.4549 22.0108C10.5532 22.0108 10.6366 21.9282 10.6366 21.8299C10.6366 21.7316 10.5532 21.649 10.4549 21.649ZM10.8717 21.8975C10.8033 21.8975 10.7506 21.951 10.7506 22.0186C10.7506 22.0863 10.8033 22.1398 10.8717 22.1398C10.9402 22.1398 10.9929 22.0863 10.9929 22.0186C10.9929 21.951 10.9402 21.8975 10.8717 21.8975ZM8.70181 18.0547C8.45957 18.0547 8.2543 18.2506 8.2543 18.4999C8.2543 18.7492 8.45171 18.945 8.70181 18.945C8.9527 18.945 9.15011 18.7492 9.15011 18.4999C9.15011 18.2506 8.94484 18.0547 8.70181 18.0547ZM9.40022 15.6528C9.08876 15.6528 8.83866 15.9021 8.83866 16.212C8.83866 16.5218 9.08876 16.7704 9.40022 16.7704C9.71088 16.7704 9.96177 16.5218 9.96177 16.212C9.96177 15.9021 9.7038 15.6528 9.40022 15.6528ZM8.17879 15.7212C7.91296 15.7212 7.69353 15.9398 7.69353 16.2041C7.69353 16.4684 7.91296 16.6878 8.17879 16.6878C8.44463 16.6878 8.66406 16.4684 8.66406 16.2041C8.66406 15.9398 8.44463 15.7212 8.17879 15.7212ZM7.79184 16.7782C7.54173 16.7782 7.33646 16.9819 7.34432 17.2234C7.34432 17.4727 7.54881 17.6764 7.79184 17.6764C8.03486 17.6764 8.24722 17.4727 8.24722 17.2234C8.24722 16.9749 8.04194 16.7782 7.79184 16.7782ZM7.71633 17.8353C7.48117 17.8353 7.29871 18.024 7.29871 18.2506C7.29871 18.4771 7.48825 18.6658 7.71633 18.6658C7.94363 18.6658 8.13318 18.4771 8.13318 18.2506C8.13318 18.024 7.94363 17.8353 7.71633 17.8353ZM7.82959 18.8098C7.63297 18.8098 7.48117 18.9678 7.48117 19.1566C7.48117 19.3454 7.64004 19.5042 7.82959 19.5042C8.01913 19.5042 8.17879 19.3454 8.17879 19.1566C8.17879 18.9678 8.027 18.8098 7.82959 18.8098ZM8.71754 19.089C8.51227 19.089 8.35339 19.2549 8.35339 19.4515C8.35339 19.6552 8.52013 19.8212 8.71754 19.8212C8.91495 19.8212 9.08169 19.6552 9.08169 19.4515C9.08169 19.2549 8.92203 19.089 8.71754 19.089Z" fill="#283271"/>
<path d="M20.4677 2.59778H11.4104C11.213 2.59778 11.0463 2.76373 11.0463 2.96035V7.67931C11.0463 7.87593 11.213 8.04188 11.4104 8.04188H20.4677C20.6651 8.04188 20.8318 7.87593 20.8318 7.67931V2.96035C20.8318 2.76373 20.6651 2.59778 20.4677 2.59778Z" fill="url(#paint0_linear_1_103)"/>
<mask id="mask0_1_103" style="mask-type:luminance" maskUnits="userSpaceOnUse" x="0" y="0" width="24" height="30">
<path d="M23.1544 0H0V30H23.1544V0Z" fill="black" fill-opacity="0.4"/>
</mask>
<g mask="url(#mask0_1_103)">
<mask id="mask1_1_103" style="mask-type:luminance" maskUnits="userSpaceOnUse" x="0" y="0" width="24" height="30">
<path d="M23.1544 0H0V30H23.1544V0Z" fill="white"/>
</mask>
<g mask="url(#mask1_1_103)">
<path d="M11.3042 5.30096C11.3042 5.30096 11.3192 5.30096 11.3341 5.30096C12.4116 5.2632 20.551 4.984 20.551 4.984C20.6879 4.97613 20.8239 4.87782 20.8239 4.70401V2.96035C20.8239 2.76373 20.6572 2.59778 20.4598 2.59778H11.4104C11.213 2.59778 11.0463 2.76373 11.0463 2.96035V5.58016C11.0463 5.55735 11.0533 5.32376 11.3042 5.30096Z" fill="url(#paint1_linear_1_103)"/>
</g>
</g>
<path d="M7.76903 7.65649C7.83745 7.68717 7.96644 7.732 8.13317 7.732C8.42182 7.73986 8.57361 7.63368 8.68687 7.37729L10.2197 3.97964C10.1584 3.94896 10.0145 3.91121 9.90042 3.90413C9.7038 3.90413 9.43797 3.94189 9.27123 4.34142L8.77023 5.50465L7.7997 3.93402C7.73914 3.91908 7.58735 3.8884 7.47331 3.8884C7.1241 3.8884 6.93456 4.01739 6.73715 4.22817L5.7965 5.25533L6.55547 6.44844C6.6994 6.66787 6.88186 6.78113 7.18466 6.78113C7.38207 6.78113 7.54881 6.73551 7.6251 6.69776L6.70726 5.32375L7.35219 4.63636L8.41395 6.29743L7.76903 7.65649ZM5.76662 6.36507C5.76662 6.61439 5.66752 6.75832 5.17439 6.75832C5.10675 6.75832 5.05327 6.75832 5.00057 6.74337V3.42044C5.00057 3.17112 5.08394 2.90686 5.58415 2.90686C5.64471 2.90686 5.71313 2.91473 5.76662 2.92259V6.36507ZM4.74968 5.86722C4.74968 6.33518 4.44688 6.67495 3.8169 6.74337C3.36938 6.79607 2.70952 6.73551 2.39807 6.69776C2.39099 6.64506 2.38312 6.5845 2.38312 6.53181C2.38312 6.12362 2.60334 6.03317 2.81569 6.03317C3.02805 6.03317 3.36938 6.07092 3.62735 6.07092C3.90813 6.07092 3.9915 5.97261 3.9915 5.89003C3.9915 5.77677 3.87746 5.72329 3.66511 5.68554L3.07366 5.57229C2.58053 5.48184 2.3147 5.14207 2.3147 4.7795C2.3147 4.34142 2.62615 3.97964 3.2404 3.91121C3.70286 3.85852 4.26441 3.91908 4.57587 3.95683C4.58294 4.00952 4.59081 4.05514 4.59081 4.11491C4.59081 4.5231 4.37846 4.61355 4.1661 4.61355C4.00644 4.61355 3.75634 4.58366 3.47556 4.58366C3.18692 4.58366 3.0658 4.66625 3.0658 4.75748C3.0658 4.855 3.17984 4.90062 3.36152 4.93051L3.92308 5.03668C4.49958 5.135 4.74968 5.45903 4.74968 5.86722Z" fill="url(#paint2_linear_1_103)"/>
<mask id="mask2_1_103" style="mask-type:luminance" maskUnits="userSpaceOnUse" x="0" y="0" width="24" height="30">
<path d="M23.1544 0H0V30H23.1544V0Z" fill="black" fill-opacity="0.25098"/>
</mask>
<g mask="url(#mask2_1_103)">
<mask id="mask3_1_103" style="mask-type:luminance" maskUnits="userSpaceOnUse" x="0" y="0" width="24" height="30">
<path d="M23.1544 0H0V30H23.1544V0Z" fill="white"/>
</mask>
<g mask="url(#mask3_1_103)">
<path d="M10.2268 3.97178L9.66526 5.21759C9.65032 5.24826 9.58189 5.36151 9.4301 5.36151C9.39235 5.36151 8.91495 5.37646 8.91495 5.37646C8.82371 5.37646 8.79304 5.4669 8.79304 5.4669L9.27909 4.32649C9.44583 3.92616 9.71088 3.88841 9.90829 3.88841C10.0223 3.90414 10.1584 3.94189 10.2268 3.97178ZM8.75529 5.45904L7.80678 3.92616C7.74622 3.91122 7.59443 3.88133 7.48117 3.88133C7.13197 3.88133 6.94242 4.00953 6.74501 4.2211L5.7965 5.24826L5.87279 5.36151C5.90268 5.40634 5.9711 5.47477 6.10009 5.47477C6.1457 5.47477 6.60108 5.45904 6.63884 5.45904C6.75288 5.45904 6.83625 5.50466 6.874 5.56522L6.70726 5.3159L7.35219 4.6285L7.78397 5.30803C7.86812 5.40634 7.98138 5.41421 8.00419 5.41421C8.027 5.41421 8.6035 5.3914 8.6263 5.3914C8.67979 5.3914 8.71754 5.41421 8.75529 5.45904ZM5.57707 2.91473C5.07607 2.91473 4.99271 3.179 4.99271 3.42831V5.70836C4.99271 5.61791 5.06113 5.5196 5.18225 5.51252C5.26562 5.51252 5.50078 5.49679 5.56134 5.49679C5.63763 5.49679 5.75167 5.4441 5.75875 5.30095V2.92968C5.70605 2.91473 5.63763 2.91473 5.57707 2.91473ZM3.91521 5.02883L3.35444 4.92344C3.17197 4.89276 3.05793 4.84793 3.05793 4.74962C3.05793 4.65131 3.17984 4.57581 3.46769 4.57581C3.74847 4.57581 3.99858 4.60569 4.15824 4.60569C4.36272 4.60569 4.58294 4.51525 4.58294 4.10784C4.58294 4.05515 4.57586 4.00167 4.568 3.94897C4.25655 3.91122 3.69578 3.85066 3.23253 3.90414C2.61828 3.97178 2.30762 4.33435 2.30762 4.77243C2.30762 4.99894 2.40593 5.21051 2.60334 5.36859C2.75513 5.4669 2.89906 5.50466 3.05793 5.53454C3.18692 5.55735 3.47556 5.57229 3.68791 5.56522C3.75634 5.56522 4.24947 5.55027 4.36272 5.54241C4.61362 5.53454 4.74968 5.74611 4.7426 5.96554V5.95768C4.7426 5.92779 4.7426 5.90498 4.7426 5.87431C4.74968 5.45904 4.49957 5.135 3.91521 5.02883Z" fill="url(#paint3_linear_1_103)"/>
</g>
</g>
<path d="M14.7939 5.35365C14.7939 6.19205 14.2017 6.6899 13.5497 6.6899C13.1627 6.6899 12.8442 6.50901 12.6547 6.25182V6.49406C12.6547 6.59946 12.5933 6.66001 12.4195 6.66001C12.3432 6.66001 12.2599 6.64507 12.2142 6.63721V3.31506C12.2142 3.21675 12.2748 3.14911 12.4494 3.14911C12.5257 3.14911 12.6091 3.16405 12.6547 3.17113V4.45469C12.8442 4.19829 13.1549 4.0174 13.5497 4.0174C14.2017 4.02448 14.7939 4.51525 14.7939 5.35365ZM14.3456 5.35365C14.3456 4.79524 13.9665 4.40986 13.4663 4.40986C13.125 4.40986 12.8065 4.60569 12.6617 4.89276V5.81453C12.8065 6.10082 13.125 6.29744 13.4663 6.29744C13.9665 6.30531 14.3456 5.91992 14.3456 5.35365ZM17.6536 5.51252H15.6583C15.7188 6.01037 16.0602 6.28958 16.569 6.28958C16.7885 6.28958 16.9631 6.24475 17.1227 6.19205C17.236 6.1543 17.2816 6.13857 17.3272 6.13857C17.4483 6.13857 17.5317 6.23688 17.5097 6.47834C17.2745 6.57665 16.9253 6.6899 16.5533 6.6899C15.7495 6.6899 15.2029 6.14643 15.2029 5.34578C15.2029 4.57581 15.7794 4.02448 16.4778 4.02448C17.2745 4.02448 17.6607 4.63637 17.6607 5.2632C17.6686 5.33084 17.6607 5.42129 17.6536 5.51252ZM15.6583 5.17276H17.2439C17.2289 4.73468 16.9481 4.39491 16.4849 4.39491C16.0909 4.38705 15.7267 4.65918 15.6583 5.17276ZM19.7622 6.50901C19.5349 6.6144 19.2769 6.68282 19.019 6.68282C18.5109 6.68282 18.1994 6.38789 18.1994 5.89004V3.67763C18.1994 3.56438 18.2679 3.48887 18.4346 3.48887C18.5109 3.48887 18.5943 3.50382 18.6399 3.51876V4.07717H19.6411C19.6482 4.11492 19.656 4.19043 19.656 4.25099C19.656 4.40986 19.5876 4.46255 19.4972 4.46255H18.6399V5.85936C18.6399 6.1543 18.7759 6.30531 19.0646 6.30531C19.3226 6.30531 19.4665 6.19205 19.5876 6.19205C19.7245 6.19205 19.785 6.29744 19.7622 6.50901Z" fill="white"/>
<defs>
<linearGradient id="paint0_linear_1_103" x1="15.9372" y1="2.59827" x2="15.9372" y2="8.04391" gradientUnits="userSpaceOnUse">
<stop offset="0.4" stop-color="#FF0000"/>
<stop offset="1" stop-color="#D42321"/>
</linearGradient>
<linearGradient id="paint1_linear_1_103" x1="15.9709" y1="5.22447" x2="15.8766" y2="2.51207" gradientUnits="userSpaceOnUse">
<stop stop-color="white"/>
<stop offset="1" stop-color="white" stop-opacity="0.25098"/>
</linearGradient>
<linearGradient id="paint2_linear_1_103" x1="6.26459" y1="2.91172" x2="6.26459" y2="7.73068" gradientUnits="userSpaceOnUse">
<stop stop-color="#002A91"/>
<stop offset="0.8" stop-color="#002672"/>
</linearGradient>
<linearGradient id="paint3_linear_1_103" x1="6.30564" y1="5.46478" x2="6.24224" y2="3.6406" gradientUnits="userSpaceOnUse">
<stop stop-color="white"/>
<stop offset="1" stop-color="white" stop-opacity="0.25098"/>
</linearGradient>
</defs>
</svg>
