<svg width="17" height="16" viewBox="0 0 17 16" fill="none" xmlns="http://www.w3.org/2000/svg">
<path d="M13.6973 2.34286C12.9629 1.6084 12.1074 1.03193 11.1545 0.628571C10.1679 0.211765 9.12086 0 8.04019 0C6.9612 0.00168067 5.91414 0.211765 4.92758 0.630252C3.97464 1.03361 3.11918 1.61008 2.38473 2.34454C1.65027 3.07899 1.0738 3.93445 0.670442 4.8874C0.253635 5.87395 0.0418701 6.92101 0.0418701 8.00168C0.0418701 9.08069 0.253635 10.1294 0.670442 11.116C1.0738 12.0689 1.65027 12.9244 2.38473 13.6588C3.11918 14.3933 3.97464 14.9697 4.92758 15.3731C5.91414 15.7899 6.9612 16.0017 8.04187 16.0017C9.12086 16.0017 10.1696 15.7899 11.1562 15.3731C12.1091 14.9697 12.9646 14.3933 13.699 13.6588C14.4335 12.9244 15.01 12.0689 15.4133 11.116C15.8301 10.1294 16.0419 9.08237 16.0419 8.00168C16.0419 6.92269 15.8301 5.87395 15.4133 4.8874C15.0083 3.93277 14.4318 3.07899 13.6973 2.34286ZM3.6133 1.80672C3.68557 1.75126 3.75616 1.69244 3.83011 1.64034C4.21834 1.36807 4.64859 1.1479 5.08557 0.964706C6.01666 0.57479 7.02843 0.369748 8.04019 0.369748C8.71414 0.369748 9.4049 0.460504 10.0553 0.638655C9.79816 0.742857 9.48387 0.941177 8.95616 1.3916C8.51748 1.34454 8.0738 1.34286 7.62843 1.38487C7.0469 1.44034 6.46204 1.56975 5.89061 1.77143C5.37464 1.95294 4.96624 2.15966 4.69061 2.31765C4.26876 2.16639 3.72422 1.98824 3.45532 1.90084C3.49733 1.91429 3.58473 1.82857 3.6133 1.80672ZM10.9007 3.80672L9.53263 7.54118L6.25027 8.17143L3.53767 5.36975C3.72086 4.09916 4.59145 2.97311 4.59145 2.97311C4.59649 2.96975 5.16456 2.55966 6.07548 2.24202C6.60659 2.05546 7.14775 1.93613 7.68725 1.88571C8.12759 1.84538 8.56624 1.8521 8.99985 1.9042L10.9007 3.80672ZM0.702374 7.73445C0.618341 8.27731 0.599853 8.84034 0.643551 9.40672C0.578005 9.27565 0.525904 9.16474 0.487248 9.07565C0.436828 8.72439 0.411618 8.36471 0.411618 7.99834C0.411618 6.87229 0.655316 5.8017 1.09397 4.83867C1.04523 5.34287 1.06876 5.86556 1.10406 6.2622C0.91582 6.73445 0.781366 7.22689 0.702374 7.73445ZM1.36624 10.6437C1.28893 10.3597 1.19817 9.94624 1.15279 9.45044C1.10237 8.89076 1.1175 8.33447 1.20153 7.80168C1.2654 7.39328 1.36792 6.99666 1.5091 6.61513C2.06204 6.1479 2.79481 5.87395 3.19985 5.7479L5.86204 8.49748L5.58305 11.5109L2.98137 12.3798C2.31918 11.8924 1.778 11.247 1.36624 10.6437ZM9.27212 15.0067C8.69229 15.3866 7.22674 15.4773 6.63179 15.4991C5.97632 15.3765 5.33935 15.1664 4.73933 14.8773C4.21496 14.6252 3.71748 14.3126 3.2637 13.9462C3.27211 13.9311 3.19311 13.1294 3.19648 12.837L5.82505 11.9597L8.85866 13.2723L9.27713 15.0017C9.2738 15.0051 9.27212 15.0067 9.27212 15.0067ZM14.3125 12.3462C13.8604 12.9983 13.3192 13.605 12.6688 14.0655C12.0587 14.4958 11.2419 14.6437 10.5158 14.763C10.4604 14.7714 9.76624 14.8857 9.7612 14.8622L9.34273 13.1311L11.4788 10.9076L14.3074 10.6471C14.3511 11.0975 14.4083 11.7546 14.4419 12.1563C14.3982 12.2202 14.3562 12.284 14.3125 12.3462ZM14.3562 10.084C14.3461 10.1008 14.336 10.1193 14.3259 10.1395L11.5091 10.3983L9.99313 7.74622L11.3646 4.00336L13.3007 4.12605C13.7125 4.47059 14.0772 4.85378 14.3864 5.26723C14.773 5.78655 15.0738 6.3563 15.2789 6.95966C15.0637 8.82859 14.5679 9.75965 14.3562 10.084ZM15.3662 5.87899C15.1999 5.55798 15.0049 5.24874 14.7847 4.95462C14.4368 4.48908 14.0234 4.0605 13.5545 3.67899C13.4688 3.25378 13.2335 2.58487 12.6015 1.88235C12.6133 1.89076 12.6251 1.90084 12.6368 1.90924C12.6755 1.93782 12.7125 1.96807 12.7511 1.99664C13.1864 2.3395 13.5831 2.72773 13.9343 3.15462C14.5864 3.94958 15.0789 4.87227 15.3679 5.86218C15.3662 5.86891 15.3662 5.87395 15.3662 5.87899Z" fill="black"/>
</svg>
