<svg width="23" height="30" viewBox="0 0 23 30" fill="none" xmlns="http://www.w3.org/2000/svg">
<g clip-path="url(#clip0_1_143)">
<path d="M11.5 29.9C5.16245 29.9 0.00854492 24.6867 0.00854492 18.289C0.00854492 18.214 0.00854492 4.7281 0.00854492 1.89294V0.0999756H22.9835V1.89294C22.9835 4.71248 22.9835 18.1843 22.9835 18.289C22.9914 24.6867 17.8375 29.9 11.5 29.9Z" fill="white"/>
<path d="M22.3359 1.89296V0.7453H0.664062V1.89296C0.664062 4.7578 0.664062 18.2141 0.664062 18.2891C0.664062 24.3344 5.52422 29.2476 11.5078 29.2476C17.4906 29.2476 22.3508 24.3344 22.3508 18.2891C22.343 18.1844 22.3359 4.69061 22.3359 1.89296ZM11.5 28.6023C5.87891 28.6023 1.3125 23.9742 1.3125 18.2891C1.3125 18.0867 1.3125 4.09764 1.3125 1.39764H21.6875C21.6875 4.09764 21.6875 18.0867 21.6875 18.2891C21.6875 23.9742 17.1211 28.6023 11.5 28.6023Z" fill="#BB1731"/>
<path d="M11.1836 26.1945C10.9125 26.1945 10.6859 25.9773 10.6859 25.7V22.9992H12.6305V23.7422H11.4852V24.2219H12.525V24.9648H11.4852V26.1945H11.1836ZM8.20703 25.7C8.20703 25.9695 8.42578 26.1945 8.70469 26.1945H10.1359V25.4594H9.00547V24.9648H10.0453V24.2219H9.00547V23.7422H10.1438V22.9992H8.20703V25.7ZM14.9133 26.1945V25.4594H13.9188V23.007H13.1203V25.707C13.1203 25.9773 13.3383 26.2023 13.6172 26.2023H14.9133V26.1945Z" fill="#283271"/>
<path d="M12.9094 16.9617C12.5774 16.9617 12.3063 17.2312 12.3063 17.5617C12.3063 17.8914 12.5774 18.1617 12.9094 18.1617C13.2406 18.1617 13.5117 17.8914 13.5117 17.5617C13.5117 17.2312 13.2406 16.9617 12.9094 16.9617Z" fill="#283271"/>
<path d="M12.2156 15.9187C11.9141 15.9187 11.6735 16.1585 11.6735 16.4585C11.6735 16.7585 11.9141 16.9992 12.2156 16.9992C12.5172 16.9992 12.7586 16.7585 12.7586 16.4585C12.7508 16.1585 12.5094 15.9187 12.2156 15.9187Z" fill="#283271"/>
<path d="M13.2859 15.364C12.9921 15.364 12.7585 15.596 12.7585 15.889C12.7585 16.1812 12.9921 16.414 13.2859 16.414C13.5796 16.414 13.8132 16.1812 13.8132 15.889C13.8132 15.596 13.5796 15.364 13.2859 15.364Z" fill="#283271"/>
<path d="M11.4852 15.1687C11.236 15.1687 11.0406 15.371 11.0406 15.6109C11.0406 15.8515 11.2438 16.0539 11.4852 16.0539C11.7258 16.0539 11.9297 15.8515 11.9297 15.6109C11.9297 15.371 11.7336 15.1687 11.4852 15.1687Z" fill="#283271"/>
<path d="M10.671 14.7937C10.4679 14.7937 10.3015 14.9585 10.3015 15.1609C10.3015 15.364 10.4679 15.5289 10.671 15.5289C10.8742 15.5289 11.0406 15.364 11.0406 15.1609C11.0406 14.9585 10.8742 14.7937 10.671 14.7937Z" fill="#283271"/>
<path d="M9.91794 14.7039C9.75935 14.7039 9.62341 14.8312 9.62341 14.996C9.62341 15.1609 9.75154 15.289 9.91794 15.289C10.0836 15.289 10.2117 15.1609 10.2117 14.996C10.2117 14.8312 10.0758 14.7039 9.91794 14.7039Z" fill="#283271"/>
<path d="M10.8446 14.1789C10.686 14.1789 10.5657 14.3062 10.5657 14.4562C10.5657 14.6062 10.6938 14.7336 10.8446 14.7336C10.9954 14.7336 11.1235 14.6062 11.1235 14.4562C11.1235 14.3062 11.0024 14.1789 10.8446 14.1789Z" fill="#283271"/>
<path d="M11.5453 13.6461C11.3945 13.6461 11.2664 13.7664 11.2664 13.9234C11.2664 14.0812 11.3867 14.2015 11.5453 14.2015C11.7031 14.2015 11.8242 14.0812 11.8242 13.9234C11.8242 13.7664 11.7031 13.6461 11.5453 13.6461Z" fill="#283271"/>
<path d="M10.9352 13.6836C10.8141 13.6836 10.7164 13.7813 10.7164 13.9008C10.7164 14.0211 10.8141 14.1188 10.9352 14.1188C11.0555 14.1188 11.1531 14.0211 11.1531 13.9008C11.1531 13.7813 11.0555 13.6836 10.9352 13.6836Z" fill="#283271"/>
<path d="M10.4 13.7961C10.2945 13.7961 10.2039 13.8859 10.2039 13.9914C10.2039 14.0961 10.2945 14.1859 10.4 14.1859C10.5054 14.1859 10.596 14.0961 10.596 13.9914C10.596 13.8859 10.5054 13.7961 10.4 13.7961Z" fill="#283271"/>
<path d="M10.1515 14.2312C10.0304 14.2312 9.93982 14.3289 9.93982 14.4414C9.93982 14.5539 10.0383 14.6515 10.1515 14.6515C10.264 14.6515 10.3625 14.5539 10.3625 14.4414C10.3625 14.3289 10.2719 14.2312 10.1515 14.2312Z" fill="#283271"/>
<path d="M9.46563 14.2836C9.36016 14.2836 9.26953 14.3734 9.26953 14.4789C9.26953 14.5836 9.36016 14.6734 9.46563 14.6734C9.57109 14.6734 9.66172 14.5836 9.66172 14.4789C9.66172 14.3734 9.57813 14.2836 9.46563 14.2836Z" fill="#283271"/>
<path d="M9.78987 14.0132C9.70627 14.0132 9.64612 14.0812 9.64612 14.1562C9.64612 14.2312 9.71409 14.2984 9.78987 14.2984C9.86487 14.2984 9.93284 14.2312 9.93284 14.1562C9.93284 14.0812 9.87268 14.0132 9.78987 14.0132Z" fill="#283271"/>
<path d="M8.99849 14.4859C8.9227 14.4859 8.86255 14.5461 8.86255 14.6211C8.86255 14.6961 8.9227 14.7562 8.99849 14.7562C9.07349 14.7562 9.13364 14.6961 9.13364 14.6211C9.13364 14.5461 9.07349 14.4859 8.99849 14.4859Z" fill="#283271"/>
<path d="M9.25471 14.7414C9.12659 14.7414 9.02112 14.8461 9.02112 14.9734C9.02112 15.1016 9.12659 15.2062 9.25471 15.2062C9.38284 15.2062 9.48831 15.1016 9.48831 14.9734C9.48831 14.8461 9.38284 14.7414 9.25471 14.7414Z" fill="#283271"/>
<path d="M8.68198 14.8164C8.58355 14.8164 8.50073 14.8984 8.50073 14.9961C8.50073 15.0937 8.58355 15.1766 8.68198 15.1766C8.77964 15.1766 8.86245 15.0937 8.86245 14.9961C8.86245 14.8984 8.77964 14.8164 8.68198 14.8164Z" fill="#283271"/>
<path d="M8.30464 15.139C8.23745 15.139 8.18433 15.1914 8.18433 15.2586C8.18433 15.3265 8.23745 15.3789 8.30464 15.3789C8.37261 15.3789 8.42573 15.3265 8.42573 15.2586C8.42573 15.1914 8.37261 15.139 8.30464 15.139Z" fill="#283271"/>
<path d="M12.4266 14.7109C12.186 14.7109 11.9821 14.9063 11.9821 15.1539C11.9821 15.4016 12.1781 15.5961 12.4266 15.5961C12.668 15.5961 12.8711 15.4016 12.8711 15.1539C12.8711 14.9063 12.6758 14.7109 12.4266 14.7109Z" fill="#283271"/>
<path d="M14.0617 16.3312C13.7531 16.3312 13.5046 16.5789 13.5046 16.8867C13.5046 17.1937 13.7531 17.4414 14.0617 17.4414C14.371 17.4414 14.6195 17.1937 14.6195 16.8867C14.6195 16.5789 14.371 16.3312 14.0617 16.3312Z" fill="#283271"/>
<path d="M14.6649 15.364C14.4008 15.364 14.1829 15.5812 14.1829 15.8437C14.1829 16.1062 14.4008 16.3242 14.6649 16.3242C14.929 16.3242 15.1469 16.1062 15.1469 15.8437C15.1469 15.5812 14.936 15.364 14.6649 15.364Z" fill="#283271"/>
<path d="M13.9789 14.5609C13.7305 14.5609 13.5273 14.764 13.5273 15.0109C13.5273 15.2586 13.7305 15.4609 13.9789 15.4609C14.2281 15.4609 14.4312 15.2586 14.4312 15.0109C14.4312 14.764 14.2281 14.5609 13.9789 14.5609Z" fill="#283271"/>
<path d="M13.1273 14.0132C12.8937 14.0132 12.7133 14.2015 12.7133 14.4265C12.7133 14.6515 12.9015 14.839 13.1273 14.839C13.3539 14.839 13.5422 14.6515 13.5422 14.4265C13.5422 14.2015 13.3609 14.0132 13.1273 14.0132Z" fill="#283271"/>
<path d="M12.2915 13.7289C12.0954 13.7289 11.9446 13.8859 11.9446 14.0734C11.9446 14.2609 12.1032 14.4187 12.2915 14.4187C12.4797 14.4187 12.6375 14.2609 12.6375 14.0734C12.6375 13.8859 12.4875 13.7289 12.2915 13.7289Z" fill="#283271"/>
<path d="M11.5906 14.321C11.3867 14.321 11.2211 14.4859 11.2211 14.689C11.2211 14.8914 11.3867 15.0562 11.5906 15.0562C11.7937 15.0562 11.9594 14.8914 11.9594 14.689C11.9594 14.4859 11.7937 14.321 11.5906 14.321Z" fill="#283271"/>
<path d="M11.6883 19.2867C11.6883 19.6164 11.4172 19.8867 11.0859 19.8867C10.7539 19.8867 10.4828 19.6164 10.4828 19.2867C10.4828 18.9562 10.7539 18.6867 11.0859 18.6867C11.4172 18.6867 11.6883 18.9492 11.6883 19.2867Z" fill="#BB1731"/>
<path d="M12.3969 18.7015C12.0953 18.7015 11.8539 18.9414 11.8539 19.2414C11.8539 19.5414 12.0953 19.782 12.3969 19.782C12.6984 19.782 12.939 19.5414 12.939 19.2414C12.939 18.9414 12.6906 18.7015 12.3969 18.7015Z" fill="#BB1731"/>
<path d="M12.3438 19.9242C12.05 19.9242 11.8164 20.157 11.8164 20.4492C11.8164 20.7414 12.05 20.9742 12.3438 20.9742C12.6375 20.9742 12.8711 20.7414 12.8711 20.4492C12.8711 20.157 12.6375 19.9242 12.3438 19.9242Z" fill="#BB1731"/>
<path d="M13.4891 18.5891C13.2406 18.5891 13.0446 18.7914 13.0446 19.0312C13.0446 19.2719 13.2485 19.4812 13.4891 19.4812C13.7305 19.4812 13.9336 19.2789 13.9336 19.0391C13.9336 18.7992 13.7383 18.5891 13.4891 18.5891Z" fill="#BB1731"/>
<path d="M14.2882 18.1914C14.0843 18.1914 13.9187 18.3563 13.9187 18.5594C13.9187 18.7617 14.0843 18.9266 14.2882 18.9266C14.4914 18.9266 14.657 18.7617 14.657 18.5594C14.657 18.3563 14.4914 18.1914 14.2882 18.1914Z" fill="#BB1731"/>
<path d="M14.8078 17.696C14.65 17.696 14.514 17.8242 14.514 17.989C14.514 18.1539 14.6422 18.2812 14.8078 18.2812C14.9734 18.2812 15.1015 18.1539 15.1015 17.989C15.1015 17.8242 14.9734 17.696 14.8078 17.696Z" fill="#BB1731"/>
<path d="M14.8156 18.7844C14.6571 18.7844 14.5367 18.9117 14.5367 19.0617C14.5367 19.2117 14.6649 19.3391 14.8156 19.3391C14.9664 19.3391 15.0946 19.2117 15.0946 19.0617C15.0946 18.9117 14.9735 18.7766 14.8156 18.7844Z" fill="#BB1731"/>
<path d="M14.9289 19.6617C14.7781 19.6617 14.65 19.782 14.65 19.939C14.65 20.0968 14.7703 20.2164 14.9289 20.2164C15.0867 20.2164 15.2071 20.0968 15.2071 19.939C15.2071 19.782 15.0789 19.6617 14.9289 19.6617Z" fill="#BB1731"/>
<path d="M15.2524 19.1968C15.1321 19.1968 15.0344 19.2937 15.0344 19.414C15.0344 19.5343 15.1321 19.6312 15.2524 19.6312C15.3735 19.6312 15.4711 19.5343 15.4711 19.414C15.4711 19.2937 15.3735 19.1968 15.2524 19.1968Z" fill="#BB1731"/>
<path d="M15.4407 18.7094C15.3352 18.7094 15.2454 18.7992 15.2454 18.9039C15.2454 19.0094 15.3352 19.0992 15.4407 19.0992C15.5461 19.0992 15.6368 19.0094 15.6368 18.9039C15.6368 18.7992 15.5461 18.7094 15.4407 18.7094Z" fill="#BB1731"/>
<path d="M15.1774 18.2593C15.0571 18.2593 14.9664 18.3562 14.9664 18.4687C14.9664 18.5812 15.0641 18.6789 15.1774 18.6789C15.2906 18.6789 15.3883 18.5812 15.3883 18.4687C15.3883 18.3562 15.2977 18.2593 15.1774 18.2593Z" fill="#BB1731"/>
<path d="M15.486 17.6664C15.3805 17.6664 15.2906 17.7562 15.2906 17.8617C15.2906 17.9664 15.3735 18.0562 15.486 18.0562C15.5992 18.0562 15.6821 17.9664 15.6821 17.8617C15.6821 17.7562 15.5914 17.6664 15.486 17.6664Z" fill="#BB1731"/>
<path d="M15.607 18.1539C15.5242 18.1539 15.4633 18.2218 15.4633 18.2968C15.4633 18.3718 15.5312 18.439 15.607 18.439C15.682 18.439 15.75 18.3718 15.75 18.2968C15.75 18.2218 15.6898 18.1539 15.607 18.1539Z" fill="#BB1731"/>
<path d="M15.5992 17.2539C15.5242 17.2539 15.4633 17.3141 15.4633 17.3891C15.4633 17.4641 15.5242 17.5242 15.5992 17.5242C15.6742 17.5242 15.7351 17.4641 15.7351 17.3891C15.7351 17.3141 15.6742 17.2539 15.5992 17.2539Z" fill="#BB1731"/>
<path d="M15.1625 17.1937C15.0344 17.1937 14.929 17.2992 14.929 17.4265C14.929 17.5539 15.0344 17.6586 15.1625 17.6586C15.2907 17.6586 15.3961 17.5539 15.3961 17.4265C15.3961 17.2992 15.2907 17.1937 15.1625 17.1937Z" fill="#BB1731"/>
<path d="M15.4336 16.7437C15.3351 16.7437 15.2523 16.8265 15.2523 16.9242C15.2523 17.0211 15.3351 17.1039 15.4336 17.1039C15.5312 17.1039 15.614 17.0211 15.614 16.9242C15.614 16.8265 15.5312 16.7437 15.4336 16.7437Z" fill="#BB1731"/>
<path d="M15.3883 16.3461C15.3203 16.3461 15.2679 16.3992 15.2679 16.4664C15.2679 16.5336 15.3203 16.5867 15.3883 16.5867C15.4562 16.5867 15.5086 16.5336 15.5086 16.4664C15.5086 16.3992 15.4562 16.3461 15.3883 16.3461Z" fill="#BB1731"/>
<path d="M13.4219 19.639C13.1805 19.639 12.9766 19.8344 12.9766 20.082C12.9766 20.3289 13.1727 20.5242 13.4219 20.5242C13.6703 20.5242 13.8664 20.3289 13.8664 20.082C13.8664 19.8344 13.6625 19.639 13.4219 19.639Z" fill="#BB1731"/>
<path d="M11.093 20.0664C10.7844 20.0664 10.5352 20.3141 10.5352 20.6219C10.5352 20.9289 10.7844 21.1766 11.093 21.1766C11.4023 21.1766 11.6508 20.9289 11.6508 20.6219C11.6508 20.3141 11.4023 20.0664 11.093 20.0664Z" fill="#BB1731"/>
<path d="M11.7031 21.1843C11.4398 21.1843 11.2211 21.4015 11.2211 21.664C11.2211 21.9265 11.4398 22.1445 11.7031 22.1445C11.9672 22.1445 12.1859 21.9265 12.1859 21.664C12.1859 21.4015 11.9672 21.1843 11.7031 21.1843Z" fill="#BB1731"/>
<path d="M12.7734 21.0344C12.525 21.0344 12.321 21.2367 12.321 21.4844C12.321 21.732 12.525 21.9344 12.7734 21.9344C13.0218 21.9344 13.2257 21.732 13.2257 21.4844C13.2257 21.2367 13.0218 21.0344 12.7734 21.0344Z" fill="#BB1731"/>
<path d="M13.7 20.6289C13.4664 20.6289 13.2859 20.8164 13.2859 21.0414C13.2859 21.2664 13.4742 21.4539 13.7 21.4539C13.9265 21.4539 14.1148 21.2664 14.1148 21.0414C14.1148 20.8164 13.9335 20.6289 13.7 20.6289Z" fill="#BB1731"/>
<path d="M14.4235 20.1492C14.2282 20.1492 14.0774 20.307 14.0774 20.4945C14.0774 20.682 14.2352 20.839 14.4235 20.839C14.6118 20.839 14.7704 20.682 14.7704 20.4945C14.7704 20.307 14.6196 20.1492 14.4235 20.1492Z" fill="#BB1731"/>
<path d="M14.2429 19.2266C14.039 19.2266 13.8734 19.3914 13.8734 19.5867C13.8734 19.782 14.039 19.9539 14.2429 19.9539C14.4461 19.9539 14.6117 19.7891 14.6117 19.5867C14.6117 19.3844 14.4461 19.2266 14.2429 19.2266Z" fill="#BB1731"/>
<path d="M10.4977 16.2414C10.1664 16.2414 9.89531 16.5117 9.89531 16.8414C9.89531 17.171 10.1664 17.4414 10.4977 17.4414C10.8297 17.4414 11.1008 17.171 11.1008 16.8414C11.1008 16.5117 10.8367 16.2414 10.4977 16.2414ZM9.87969 17.464C9.57812 17.464 9.3375 17.7039 9.3375 18.0039C9.3375 18.3039 9.57812 18.5437 9.87969 18.5437C10.1812 18.5437 10.4227 18.3039 10.4227 18.0039C10.4227 17.7039 10.1812 17.464 9.87969 17.464ZM8.85547 16.8335C8.56094 16.8335 8.32734 17.0664 8.32734 17.3585C8.32734 17.6515 8.56094 17.8843 8.85547 17.8843C9.14922 17.8843 9.38281 17.6515 9.38281 17.3585C9.38281 17.0664 9.14922 16.8335 8.85547 16.8335ZM9.51797 18.6039C9.26953 18.6039 9.07344 18.8062 9.07344 19.0468C9.07344 19.2867 9.27734 19.489 9.51797 19.489C9.76719 19.489 9.97031 19.2867 9.97031 19.0468C9.97031 18.8062 9.75937 18.6039 9.51797 18.6039ZM9.53359 19.6093C9.32969 19.6093 9.16406 19.7742 9.16406 19.9765C9.16406 20.1789 9.32969 20.3445 9.53359 20.3445C9.73672 20.3445 9.90234 20.1789 9.90234 19.9765C9.90234 19.7742 9.73672 19.6093 9.53359 19.6093ZM9.75938 20.4195C9.59375 20.4195 9.46563 20.5468 9.46563 20.7117C9.46563 20.8765 9.59375 21.0039 9.75938 21.0039C9.925 21.0039 10.0531 20.8765 10.0531 20.7117C10.0531 20.5468 9.91797 20.4195 9.75938 20.4195ZM8.825 19.9015C8.66641 19.9015 8.54609 20.0289 8.54609 20.1789C8.54609 20.3289 8.67422 20.457 8.825 20.457C8.97578 20.457 9.10391 20.3289 9.10391 20.1789C9.10391 20.0289 8.98359 19.9015 8.825 19.9015ZM8.01094 19.5718C7.86016 19.5718 7.73203 19.6914 7.73203 19.8492C7.73203 20.007 7.85312 20.1265 8.01094 20.1265C8.16953 20.1265 8.28984 20.007 8.28984 19.8492C8.28984 19.6914 8.16172 19.5718 8.01094 19.5718ZM8.30469 20.1718C8.18437 20.1718 8.08672 20.2695 8.08672 20.389C8.08672 20.5093 8.18437 20.607 8.30469 20.607C8.42578 20.607 8.52344 20.5093 8.52344 20.389C8.52344 20.2695 8.42578 20.1718 8.30469 20.1718ZM8.65156 20.5992C8.54609 20.5992 8.45547 20.689 8.45547 20.7945C8.45547 20.8992 8.54609 20.989 8.65156 20.989C8.75703 20.989 8.84766 20.8992 8.84766 20.7945C8.84766 20.689 8.75703 20.5992 8.65156 20.5992ZM9.15625 20.5765C9.03594 20.5765 8.94531 20.6742 8.94531 20.7867C8.94531 20.8992 9.04375 20.9968 9.15625 20.9968C9.26953 20.9968 9.36719 20.8992 9.36719 20.7867C9.36719 20.6742 9.27734 20.5765 9.15625 20.5765ZM9.53359 21.1695C9.42812 21.1695 9.3375 21.2515 9.3375 21.364C9.3375 21.4765 9.42812 21.5593 9.53359 21.5593C9.63906 21.5593 9.72891 21.4695 9.72891 21.364C9.72891 21.2593 9.63906 21.1695 9.53359 21.1695ZM9.09609 21.0945C9.01328 21.0945 8.95313 21.1617 8.95313 21.2367C8.95313 21.3117 9.02109 21.3789 9.09609 21.3789C9.17187 21.3789 9.23906 21.3117 9.23906 21.2367C9.23906 21.1617 9.17891 21.0945 9.09609 21.0945ZM9.89531 21.5593C9.81953 21.5593 9.75938 21.6195 9.75938 21.6945C9.75938 21.7695 9.81953 21.8296 9.89531 21.8296C9.97031 21.8296 10.0305 21.7695 10.0305 21.6945C10.0305 21.6195 9.97031 21.5593 9.89531 21.5593ZM10.0758 21.057C9.94766 21.057 9.84219 21.1617 9.84219 21.289C9.84219 21.4164 9.94766 21.5218 10.0758 21.5218C10.2039 21.5218 10.3094 21.4164 10.3094 21.289C10.3094 21.1617 10.2039 21.057 10.0758 21.057ZM10.3773 21.5968C10.2789 21.5968 10.1961 21.6796 10.1961 21.7765C10.1961 21.8742 10.2789 21.957 10.3773 21.957C10.475 21.957 10.5578 21.8742 10.5578 21.7765C10.5578 21.6796 10.4828 21.5968 10.3773 21.5968ZM10.7992 21.8515C10.7313 21.8515 10.6789 21.9046 10.6789 21.9718C10.6789 22.039 10.7313 22.0921 10.7992 22.0921C10.8672 22.0921 10.9195 22.039 10.9195 21.9718C10.9195 21.9046 10.8672 21.8515 10.7992 21.8515ZM8.63672 18.0343C8.39531 18.0343 8.19219 18.2289 8.19219 18.4765C8.19219 18.7242 8.38828 18.9187 8.63672 18.9187C8.88516 18.9187 9.08125 18.7242 9.08125 18.4765C9.08125 18.2289 8.87734 18.0343 8.63672 18.0343ZM9.32969 15.6414C9.02109 15.6414 8.77188 15.889 8.77188 16.196C8.77188 16.5039 9.02109 16.7515 9.32969 16.7515C9.63906 16.7515 9.8875 16.5039 9.8875 16.196C9.8875 15.889 9.63906 15.6414 9.32969 15.6414ZM8.12422 15.7164C7.86016 15.7164 7.64219 15.9335 7.64219 16.196C7.64219 16.4585 7.86016 16.6765 8.12422 16.6765C8.38828 16.6765 8.60625 16.4585 8.60625 16.196C8.60625 15.9335 8.38828 15.7164 8.12422 15.7164ZM7.73984 16.7664C7.49141 16.7664 7.2875 16.9687 7.2875 17.2164C7.2875 17.464 7.49141 17.6585 7.73984 17.6585C7.98828 17.6585 8.19219 17.4562 8.19219 17.2164C8.19219 16.9765 7.98828 16.7664 7.73984 16.7664ZM7.65703 17.8093C7.42344 17.8093 7.24219 17.9968 7.24219 18.2218C7.24219 18.4468 7.43125 18.6414 7.65703 18.6414C7.88281 18.6414 8.07109 18.4539 8.07109 18.2218C8.07109 17.989 7.89063 17.8093 7.65703 17.8093ZM7.77734 18.7765C7.58203 18.7765 7.43125 18.9343 7.43125 19.1218C7.43125 19.3093 7.58906 19.4664 7.77734 19.4664C7.96562 19.4664 8.12422 19.3093 8.12422 19.1218C8.12422 18.9343 7.96562 18.7765 7.77734 18.7765ZM8.65156 19.0617C8.44844 19.0617 8.28984 19.2265 8.28984 19.4218C8.28984 19.6242 8.45547 19.789 8.65156 19.789C8.84766 19.789 9.01328 19.6242 9.01328 19.4218C9.01328 19.2187 8.85547 19.0617 8.65156 19.0617Z" fill="#283271"/>
<path d="M2.28442 12.2132C2.28442 12.2882 2.34458 12.3562 2.42739 12.3562H20.5727C20.6477 12.3562 20.7157 12.2882 20.7157 12.2132C20.7157 12.1382 20.6477 12.071 20.5727 12.071H2.42739C2.34458 12.071 2.28442 12.1312 2.28442 12.2132Z" fill="#BB1731"/>
<path d="M3.84451 10.9312L3.79138 11.171C3.77654 11.2312 3.74607 11.246 3.70076 11.246H2.87966C2.64607 11.246 2.51013 11.1257 2.51013 10.8632V8.95073C2.51013 8.89839 2.53279 8.88354 2.60076 8.88354H2.88748C2.95466 8.88354 2.97732 8.89839 2.97732 8.95073V10.8632H3.76873C3.82888 10.8562 3.85935 10.871 3.84451 10.9312Z" fill="#BB1731"/>
<path d="M5.4187 10.9085L5.38901 11.1859C5.38901 11.2234 5.37339 11.2382 5.32886 11.2382H4.42417C4.19058 11.2382 4.05542 11.1187 4.05542 10.8562V8.94292C4.05542 8.89839 4.07026 8.87573 4.12261 8.87573H5.35854C5.39604 8.87573 5.4187 8.89058 5.41167 8.92808L5.3812 9.20542C5.3812 9.24292 5.35854 9.25854 5.32104 9.25854H4.53745V9.85073H5.26089C5.3062 9.85073 5.31323 9.86558 5.31323 9.90308L5.28354 10.1804C5.28354 10.2109 5.26089 10.2257 5.22339 10.2257H4.53745V10.8484H5.36636C5.41167 10.8562 5.42651 10.871 5.4187 10.9085Z" fill="#BB1731"/>
<path d="M5.61482 11.1859C5.82576 10.3835 6.02967 9.59604 6.23279 8.96558C6.24764 8.90542 6.29295 8.87573 6.36092 8.87573H6.76014C6.84295 8.87573 6.87342 8.90542 6.89607 8.96558C7.09217 9.58823 7.31014 10.3835 7.52107 11.1859C7.52889 11.2234 7.51404 11.2382 7.46873 11.2382H7.11482C7.0617 11.2382 7.03123 11.2156 7.03123 11.1859L6.94139 10.7734H6.21795C6.18748 10.9156 6.15779 11.0507 6.12732 11.1937C6.11951 11.2234 6.09685 11.2382 6.05232 11.2382H5.67498C5.61482 11.2382 5.60701 11.2234 5.61482 11.1859ZM6.85076 10.4062C6.78279 10.0531 6.67732 9.62573 6.57967 9.26558H6.55701C6.46639 9.62573 6.3531 10.0531 6.29295 10.4062H6.85076Z" fill="#BB1731"/>
<path d="M8.85547 10.3086C8.65156 10.3086 8.54609 10.1961 8.54609 10.0008V9.9781C8.54609 9.9406 8.56094 9.91794 8.59922 9.91794H9.3C9.3375 9.91794 9.36016 9.93357 9.36016 9.97107V10.9984C9.36016 11.0812 9.3375 11.1258 9.27734 11.1484C9.11094 11.2234 8.83281 11.2687 8.57656 11.2687C7.95859 11.2687 7.67969 11.0211 7.67969 10.4734V9.66326C7.67969 9.0781 8.00391 8.83826 8.62891 8.83826C8.83984 8.83826 9.05859 8.86794 9.20156 8.90544C9.24688 8.92107 9.26172 8.93591 9.26172 8.98826V9.25857C9.26172 9.3031 9.23203 9.31091 9.18672 9.29607C9.05078 9.25857 8.85547 9.23591 8.66641 9.23591C8.36563 9.23591 8.15469 9.33357 8.15469 9.70857V10.4211C8.15469 10.6008 8.18438 10.6984 8.24453 10.7734C8.29766 10.8406 8.41016 10.8781 8.57656 10.8781C8.69688 10.8781 8.83984 10.8633 8.90781 10.8406V10.3086H8.85547Z" fill="#BB1731"/>
<path d="M9.96252 11.0882C9.81956 10.9609 9.75159 10.7507 9.75159 10.4656V8.92808C9.75159 8.89839 9.76721 8.87573 9.80471 8.87573H10.1735C10.2117 8.87573 10.2266 8.89058 10.2266 8.92808V10.421C10.2266 10.5632 10.2414 10.6906 10.3094 10.7656C10.3625 10.8335 10.4602 10.8781 10.5883 10.8781C10.7164 10.8781 10.8141 10.8406 10.8742 10.7656C10.9422 10.6835 10.95 10.5632 10.95 10.421V8.92808C10.95 8.89839 10.9727 8.87573 11.0102 8.87573H11.3797C11.4172 8.87573 11.4321 8.89839 11.4321 8.92808V10.4656C11.4321 10.7585 11.3571 10.9687 11.1985 11.096C11.0555 11.2156 10.8594 11.2757 10.5883 11.2757C10.3016 11.2757 10.0985 11.2156 9.96252 11.0882Z" fill="#BB1731"/>
<path d="M13.1954 10.9085L13.1657 11.1859C13.1657 11.2234 13.15 11.2382 13.1047 11.2382H12.2008C11.9672 11.2382 11.8313 11.1187 11.8313 10.8562V8.94292C11.8313 8.89839 11.8469 8.87573 11.8993 8.87573H13.1352C13.1727 8.87573 13.1954 8.89058 13.1883 8.92808L13.1579 9.20542C13.1579 9.24292 13.1352 9.25854 13.0977 9.25854H12.3141V9.85073H13.0375C13.0821 9.85073 13.0899 9.86558 13.0899 9.90308L13.0602 10.1804C13.0602 10.2109 13.0375 10.2257 12.9993 10.2257H12.3141V10.8484H13.15C13.1883 10.8562 13.2032 10.871 13.1954 10.9085Z" fill="#BB1731"/>
<path d="M15.6899 8.92808L15.6446 9.21324C15.6368 9.25074 15.6219 9.26558 15.5766 9.26558H15.1172V11.1937C15.1172 11.2312 15.1016 11.2461 15.0571 11.2461H15.004C14.7704 11.2461 14.6344 11.1257 14.6344 10.8632V9.2734H14.1149C14.0844 9.2734 14.0618 9.25855 14.0618 9.22105V8.9359C14.0618 8.90543 14.0844 8.88355 14.1149 8.88355H15.6297C15.6743 8.87574 15.6899 8.89058 15.6899 8.92808Z" fill="#BB1731"/>
<path d="M17.4374 10.8859L17.1812 9.43823H17.1593L16.8648 11.1562C16.8499 11.2156 16.8046 11.2382 16.7367 11.2382H16.4804C16.2695 11.2382 16.1718 11.1257 16.1265 10.8859C16.0663 10.5781 15.8851 9.62573 15.8101 8.94292C15.8023 8.89058 15.8249 8.87573 15.8781 8.87573H16.1867C16.2546 8.87573 16.2773 8.89058 16.2773 8.93589C16.3374 9.57339 16.4359 10.3234 16.5257 10.8406H16.5413L16.8421 9.05542C16.8499 8.99604 16.8874 8.97339 16.9554 8.97339H17.3773C17.4453 8.97339 17.4828 8.99604 17.4906 9.05542L17.7992 10.8406H17.8148C17.9046 10.3007 18.0101 9.58042 18.0554 8.93589C18.0554 8.89058 18.0859 8.87573 18.1538 8.87573H18.4624C18.5304 8.87573 18.5382 8.90542 18.5304 8.95854C18.4476 9.63354 18.3046 10.5937 18.1609 11.1562C18.146 11.2156 18.0937 11.246 18.0257 11.246H17.7921C17.5812 11.2382 17.4828 11.1257 17.4374 10.8859Z" fill="#BB1731"/>
<path d="M18.9672 11.0734C18.8165 10.9461 18.7336 10.7437 18.7336 10.4812V9.62576C18.7336 9.32576 18.8469 9.1156 19.043 8.98044C19.186 8.88357 19.3821 8.83826 19.6079 8.83826C19.8344 8.83826 20.0454 8.8906 20.1961 8.99607C20.3766 9.12341 20.4821 9.33357 20.4821 9.62576V10.4812C20.4821 10.7656 20.3844 10.9758 20.1961 11.1109C20.0524 11.2156 19.8493 11.2687 19.6008 11.2687C19.3368 11.2758 19.118 11.2086 18.9672 11.0734ZM19.8946 10.7883C19.9696 10.7133 20.0071 10.5859 20.0071 10.4359V9.6781C20.0071 9.50544 19.9625 9.40076 19.8946 9.32576C19.8344 9.2656 19.736 9.23591 19.6157 9.23591C19.4954 9.23591 19.3891 9.2656 19.329 9.32576C19.254 9.40076 19.2165 9.50544 19.2165 9.6781V10.4359C19.2165 10.5859 19.254 10.7133 19.329 10.7883C19.3891 10.8484 19.4954 10.8781 19.6157 10.8781C19.736 10.8781 19.8344 10.8484 19.8946 10.7883Z" fill="#BB1731"/>
<mask id="mask0_1_143" style="mask-type:luminance" maskUnits="userSpaceOnUse" x="11" y="2" width="10" height="6">
<path d="M11 2.69995H20.8V7.89995H11V2.69995Z" fill="white"/>
</mask>
<g mask="url(#mask0_1_143)">
<mask id="mask1_1_143" style="mask-type:luminance" maskUnits="userSpaceOnUse" x="11" y="2" width="10" height="6">
<path d="M11.0101 2.80778V7.4734C11.0101 7.67574 11.1758 7.84059 11.3797 7.84059H20.3539C20.557 7.84059 20.7234 7.67574 20.7234 7.4734V4.57809C20.7078 4.65309 20.6703 4.69762 20.625 4.74293C20.5726 4.79528 20.4445 4.81012 20.4445 4.81012C20.4445 4.81012 11.4172 5.11793 11.3117 5.12574C11.2062 5.13278 11.1836 5.14059 11.1156 5.18512C11.0476 5.23043 11.025 5.35074 11.025 5.35074V2.74762C11.0101 2.76246 11.0101 2.78512 11.0101 2.80778Z" fill="white"/>
</mask>
<g mask="url(#mask1_1_143)">
<path d="M11.0101 2.74762H20.7156V7.84059H11.0101V2.74762Z" fill="url(#paint0_linear_1_143)"/>
</g>
</g>
<path d="M20.354 2.45544H11.3415C11.1461 2.45544 10.9797 2.62029 10.9797 2.81482V7.51091C10.9797 7.70544 11.1461 7.87029 11.3415 7.87029H20.354C20.55 7.87029 20.7157 7.70544 20.7157 7.51091V2.81482C20.7157 2.62029 20.55 2.45544 20.354 2.45544Z" fill="url(#paint1_linear_1_143)"/>
<mask id="mask2_1_143" style="mask-type:luminance" maskUnits="userSpaceOnUse" x="0" y="0" width="23" height="30">
<path d="M23 0.0999756H0V29.9H23V0.0999756Z" fill="black" fill-opacity="0.4"/>
</mask>
<g mask="url(#mask2_1_143)">
<mask id="mask3_1_143" style="mask-type:luminance" maskUnits="userSpaceOnUse" x="0" y="0" width="23" height="30">
<path d="M23 0.0999756H0V29.9H23V0.0999756Z" fill="white"/>
</mask>
<g mask="url(#mask3_1_143)">
<path d="M11.2438 5.1406C11.2438 5.1406 11.2586 5.1406 11.2743 5.1406C12.3438 5.1031 20.4368 4.82576 20.4368 4.82576C20.5727 4.81794 20.7079 4.72029 20.7079 4.54763V2.81482C20.7079 2.62029 20.5422 2.45544 20.3461 2.45544H11.3415C11.1461 2.45544 10.9797 2.62029 10.9797 2.81482V5.42576C10.9797 5.39529 10.9954 5.17029 11.2438 5.1406Z" fill="url(#paint2_linear_1_143)"/>
</g>
</g>
<path d="M7.72498 7.48042C7.79294 7.51089 7.92107 7.55542 8.08669 7.55542C8.37263 7.56323 8.52341 7.45776 8.63669 7.20308L10.1586 3.82808C10.0984 3.79761 9.95544 3.76011 9.84216 3.75308C9.64607 3.75308 9.38279 3.79058 9.21716 4.18745L8.72732 5.35073L7.76248 3.78276C7.70232 3.76792 7.54373 3.73745 7.43826 3.73745C7.09216 3.73745 6.9031 3.86558 6.70779 4.07495L5.7656 5.09526L6.51951 6.28042C6.66248 6.49761 6.84294 6.61011 7.14451 6.61011C7.3406 6.61011 7.50623 6.56558 7.58201 6.52808L6.66951 5.16323L7.31794 4.48042L8.38044 6.13042L7.72498 7.48042ZM5.7281 6.20542C5.7281 6.45308 5.62966 6.59526 5.13982 6.59526C5.07263 6.59526 5.01951 6.59526 4.96716 6.58042V3.28042C4.96716 3.03276 5.04998 2.77026 5.54685 2.77026C5.60701 2.77026 5.67498 2.7773 5.7281 2.78511V6.20542ZM4.71794 5.70308C4.71794 6.16792 4.41716 6.50542 3.79138 6.57261C3.34685 6.62573 2.69138 6.56558 2.38201 6.52808C2.37498 6.47573 2.36716 6.41558 2.36716 6.36323C2.36716 5.95776 2.58591 5.86792 2.79685 5.86792C3.0156 5.86792 3.34685 5.90542 3.6031 5.90542C3.88201 5.90542 3.96482 5.80776 3.96482 5.72573C3.96482 5.61323 3.85154 5.56011 3.6406 5.52261L3.0531 5.41011C2.56326 5.32026 2.29919 4.98276 2.29919 4.62261C2.29919 4.18745 2.60857 3.82808 3.21873 3.76011C3.6781 3.70776 4.23591 3.76792 4.54529 3.80542C4.55232 3.85776 4.56013 3.90308 4.56013 3.96245C4.56013 4.36792 4.34138 4.45776 4.13826 4.45776C3.97966 4.45776 3.73123 4.42808 3.45232 4.42808C3.1656 4.42808 3.04529 4.51011 3.04529 4.59995C3.04529 4.69761 3.15857 4.74292 3.33904 4.77261L3.90466 4.87808C4.46951 4.97573 4.71794 5.30542 4.71794 5.70308Z" fill="url(#paint3_linear_1_143)"/>
<mask id="mask4_1_143" style="mask-type:luminance" maskUnits="userSpaceOnUse" x="0" y="0" width="23" height="30">
<path d="M23 0.0999756H0V29.9H23V0.0999756Z" fill="black" fill-opacity="0.25098"/>
</mask>
<g mask="url(#mask4_1_143)">
<mask id="mask5_1_143" style="mask-type:luminance" maskUnits="userSpaceOnUse" x="0" y="0" width="23" height="30">
<path d="M23 0.0999756H0V29.9H23V0.0999756Z" fill="white"/>
</mask>
<g mask="url(#mask5_1_143)">
<path d="M10.1665 3.82808L9.60864 5.06558C9.5938 5.09526 9.52583 5.20776 9.37505 5.20776C9.33755 5.20776 8.86255 5.22261 8.86255 5.22261C8.77192 5.22261 8.74224 5.31323 8.74224 5.31323L9.22427 4.18042C9.38989 3.78276 9.65396 3.74526 9.85005 3.74526C9.96255 3.75308 10.1063 3.79058 10.1665 3.82808ZM8.70474 5.30542L7.76255 3.78276C7.70239 3.76792 7.5438 3.73745 7.43833 3.73745C7.09224 3.73745 6.90317 3.86558 6.70786 4.07495L5.76567 5.09526L5.84067 5.20776C5.87114 5.25308 5.93911 5.32026 6.06724 5.32026C6.11255 5.32026 6.56411 5.30542 6.60239 5.30542C6.71489 5.30542 6.7977 5.35073 6.83599 5.41011L6.66958 5.16323L7.31802 4.48042L7.74771 5.15542C7.83052 5.25308 7.94302 5.26011 7.96567 5.26011C7.98833 5.26011 8.56099 5.23823 8.58364 5.23823C8.62896 5.23823 8.67427 5.25308 8.70474 5.30542ZM5.54692 2.77026C5.05005 2.77026 4.96724 3.03276 4.96724 3.28042V5.54526C4.96724 5.45542 5.03442 5.35776 5.15552 5.35073C5.23833 5.35073 5.47192 5.33511 5.53989 5.33511C5.61489 5.33511 5.72817 5.28276 5.73521 5.14058V2.79292C5.66802 2.77026 5.60708 2.77026 5.54692 2.77026ZM3.88911 4.87026L3.32427 4.76558C3.1438 4.73511 3.03052 4.69058 3.03052 4.59292C3.03052 4.49526 3.15083 4.42026 3.43755 4.42026C3.71646 4.42026 3.96489 4.44995 4.12271 4.44995C4.32661 4.44995 4.54536 4.36011 4.54536 3.95542C4.54536 3.90308 4.53755 3.84995 4.52974 3.79761C4.22114 3.76011 3.66333 3.69995 3.20396 3.75308C2.59302 3.82026 2.28442 4.18042 2.28442 4.61558C2.28442 4.84058 2.38208 5.05073 2.58599 5.20776C2.73677 5.30542 2.88755 5.34292 3.03755 5.37261C3.16567 5.39526 3.45239 5.41011 3.67114 5.40308C3.73833 5.40308 4.23599 5.38823 4.34146 5.38042C4.58989 5.37261 4.72583 5.58276 4.71802 5.80073V5.79292C4.71802 5.76323 4.71802 5.74058 4.71802 5.71011C4.71802 5.30542 4.46958 4.97573 3.88911 4.87026Z" fill="url(#paint4_linear_1_143)"/>
</g>
</g>
<path d="M14.7102 5.19296C14.7102 6.02577 14.1227 6.5203 13.4743 6.5203C13.0899 6.5203 12.7735 6.34061 12.5852 6.08514V6.3328C12.5852 6.43827 12.525 6.49764 12.3516 6.49764C12.2758 6.49764 12.193 6.4828 12.1477 6.47577V3.16796C12.1477 3.0703 12.2086 3.00311 12.3813 3.00311C12.4571 3.00311 12.5399 3.01796 12.5852 3.02499V4.3078C12.7735 4.05311 13.0821 3.87264 13.4743 3.87264C14.1227 3.87264 14.7102 4.36014 14.7102 5.19296ZM14.2657 5.19296C14.2657 4.63046 13.8891 4.24764 13.3915 4.24764C13.0524 4.24764 12.736 4.44296 12.593 4.72811V5.65077C12.736 5.93514 13.0524 6.13046 13.3915 6.13046C13.8891 6.13827 14.2657 5.75546 14.2657 5.19296ZM17.5586 5.35077H15.5688C15.6297 5.8453 15.9688 6.12264 16.4805 6.12264C16.6993 6.12264 16.8727 6.07811 17.0313 6.02577C17.1438 5.98827 17.1891 5.97264 17.2344 5.97264C17.3547 5.97264 17.4375 6.0703 17.4149 6.31014C17.1813 6.4078 16.8352 6.52811 16.4657 6.52811C15.6672 6.52811 15.1243 5.98827 15.1243 5.19296C15.1243 4.42811 15.6969 3.87264 16.3977 3.87264C17.1891 3.87264 17.5735 4.48749 17.5735 5.10311C17.5735 5.1703 17.5657 5.26014 17.5586 5.35077ZM15.5688 5.01327H17.1438C17.129 4.57811 16.8422 4.2328 16.3907 4.2328C15.9985 4.2328 15.6368 4.51014 15.5688 5.01327ZM19.6532 6.34764C19.4274 6.45311 19.1711 6.5203 18.9149 6.5203C18.4102 6.5203 18.1008 6.2203 18.1008 5.72577V3.53514C18.1008 3.42264 18.1688 3.34764 18.3344 3.34764C18.4102 3.34764 18.493 3.36249 18.5383 3.37811V3.92499H19.5329C19.5399 3.96249 19.5477 4.03749 19.5477 4.09764C19.5477 4.25546 19.4797 4.3078 19.3891 4.3078H18.5454V5.6953C18.5454 5.9953 18.6813 6.13827 18.9672 6.13827C19.2235 6.13827 19.3672 6.02577 19.4875 6.02577C19.6157 6.02577 19.6758 6.13827 19.6532 6.34764Z" fill="white"/>
</g>
<defs>
<linearGradient id="paint0_linear_1_143" x1="15.8638" y1="2.6733" x2="15.8638" y2="8.06274" gradientUnits="userSpaceOnUse">
<stop stop-color="#E52320"/>
<stop offset="0.58" stop-color="#E2221F"/>
<stop offset="0.95" stop-color="#D9211F"/>
<stop offset="1" stop-color="#D8211F"/>
</linearGradient>
<linearGradient id="paint1_linear_1_143" x1="15.8486" y1="2.45592" x2="15.8486" y2="7.87225" gradientUnits="userSpaceOnUse">
<stop offset="0.4" stop-color="#FF0000"/>
<stop offset="1" stop-color="#D42321"/>
</linearGradient>
<linearGradient id="paint2_linear_1_143" x1="15.882" y1="5.06799" x2="15.7883" y2="2.37019" gradientUnits="userSpaceOnUse">
<stop stop-color="white"/>
<stop offset="1" stop-color="white" stop-opacity="0.25098"/>
</linearGradient>
<linearGradient id="paint3_linear_1_143" x1="6.22785" y1="2.76767" x2="6.22785" y2="7.5607" gradientUnits="userSpaceOnUse">
<stop stop-color="#002A91"/>
<stop offset="0.8" stop-color="#002672"/>
</linearGradient>
<linearGradient id="paint4_linear_1_143" x1="6.26876" y1="5.30698" x2="6.20569" y2="3.49262" gradientUnits="userSpaceOnUse">
<stop stop-color="white"/>
<stop offset="1" stop-color="white" stop-opacity="0.25098"/>
</linearGradient>
<clipPath id="clip0_1_143">
<rect width="23" height="30" fill="white"/>
</clipPath>
</defs>
</svg>
