<svg width="23" height="30" viewBox="0 0 23 30" fill="none" xmlns="http://www.w3.org/2000/svg">
<path d="M11.5 29.8C5.16245 29.8 0.00854492 24.5867 0.00854492 18.1891C0.00854492 18.1141 0.00854492 4.62812 0.00854492 1.79297V0H22.9835V1.79297C22.9835 4.6125 22.9835 18.0844 22.9835 18.1891C22.9914 24.5867 17.8375 29.8 11.5 29.8Z" fill="white"/>
<path d="M22.3359 1.79298V0.645325H0.664062V1.79298C0.664062 4.65782 0.664062 18.1141 0.664062 18.1891C0.664062 24.2344 5.52422 29.1477 11.5078 29.1477C17.4906 29.1477 22.3508 24.2344 22.3508 18.1891C22.343 18.0844 22.3359 4.59064 22.3359 1.79298ZM11.5 28.5024C5.87891 28.5024 1.3125 23.8742 1.3125 18.1891C1.3125 17.9867 1.3125 3.99767 1.3125 1.29767H21.6875C21.6875 3.99767 21.6875 17.9867 21.6875 18.1891C21.6875 23.8742 17.1211 28.5024 11.5 28.5024Z" fill="#8D8E8E"/>
<path d="M11.1836 26.0945C10.9125 26.0945 10.6859 25.8774 10.6859 25.6V22.8992H12.6305V23.6422H11.4852V24.1219H12.525V24.8649H11.4852V26.0945H11.1836ZM8.21484 25.607C8.21484 25.8774 8.43281 26.1024 8.71172 26.1024H10.1438V25.3672H9.01328V24.8719H10.0531V24.1297H9.01328V23.6492H10.1516V22.907H8.21484V25.607ZM14.9133 26.0945V25.3594H13.9188V22.907H13.1203V25.607C13.1203 25.8774 13.3383 26.1024 13.6172 26.1024L14.9133 26.0945Z" fill="#283271"/>
<path d="M11.6883 19.2016C11.6883 19.5312 11.4172 19.8016 11.0859 19.8016C10.7539 19.8016 10.4828 19.5312 10.4828 19.2016C10.4828 18.8719 10.7539 18.6016 11.0859 18.6016C11.4172 18.6016 11.6883 18.8641 11.6883 19.2016ZM12.3969 18.6164C12.1031 18.6164 11.8617 18.8562 11.8617 19.1562C11.8617 19.4562 12.1031 19.6969 12.3969 19.6969C12.6906 19.6969 12.939 19.4562 12.939 19.1562C12.939 18.8562 12.6906 18.6164 12.3969 18.6164ZM12.3437 19.832C12.05 19.832 11.8164 20.0641 11.8164 20.357C11.8164 20.6492 12.05 20.882 12.3437 20.882C12.6375 20.882 12.8711 20.6492 12.8711 20.357C12.8711 20.0641 12.6375 19.832 12.3437 19.832ZM13.489 18.5039C13.2406 18.5039 13.0445 18.7062 13.0445 18.9469C13.0445 19.1867 13.2484 19.3891 13.489 19.3891C13.7304 19.3891 13.9336 19.1867 13.9336 18.9469C13.9336 18.7062 13.7304 18.5039 13.489 18.5039ZM14.2804 18.1062C14.0773 18.1062 13.9109 18.2719 13.9109 18.4742C13.9109 18.6766 14.0773 18.8414 14.2804 18.8414C14.4836 18.8414 14.65 18.6766 14.65 18.4742C14.65 18.2719 14.4836 18.1062 14.2804 18.1062ZM14.8078 17.6187C14.65 17.6187 14.514 17.7469 14.514 17.9117C14.514 18.0766 14.6422 18.2039 14.8078 18.2039C14.9734 18.2039 15.1015 18.0766 15.1015 17.9117C15.1015 17.7469 14.9664 17.6187 14.8078 17.6187ZM14.8078 18.6992C14.65 18.6992 14.5289 18.8266 14.5289 18.9766C14.5289 19.1266 14.657 19.2539 14.8078 19.2539C14.9586 19.2539 15.0867 19.1266 15.0867 18.9766C15.0867 18.8266 14.9664 18.6992 14.8078 18.6992ZM14.9211 19.5766C14.7703 19.5766 14.65 19.6969 14.65 19.8469C14.65 19.9969 14.7703 20.1164 14.9211 20.1164C15.0719 20.1164 15.1922 19.9969 15.1922 19.8469C15.1922 19.6969 15.0719 19.5766 14.9211 19.5766ZM15.2453 19.1117C15.1242 19.1117 15.0265 19.2094 15.0265 19.3289C15.0265 19.4492 15.1242 19.5469 15.2453 19.5469C15.3656 19.5469 15.4633 19.4492 15.4633 19.3289C15.4633 19.2094 15.3656 19.1117 15.2453 19.1117ZM15.4336 18.6242C15.3281 18.6242 15.2375 18.7141 15.2375 18.8187C15.2375 18.9242 15.3281 19.0141 15.4336 19.0141C15.539 19.0141 15.6297 18.9242 15.6297 18.8187C15.6297 18.7141 15.539 18.6242 15.4336 18.6242ZM15.1695 18.1812C15.0492 18.1812 14.9586 18.2789 14.9586 18.3914C14.9586 18.5039 15.057 18.6016 15.1695 18.6016C15.2828 18.6016 15.3804 18.5039 15.3804 18.3914C15.3804 18.2789 15.2906 18.1812 15.1695 18.1812ZM15.4789 17.5891C15.3734 17.5891 15.2828 17.6711 15.2828 17.7844C15.2828 17.8969 15.3656 17.9789 15.4789 17.9789C15.5914 17.9789 15.6742 17.8969 15.6742 17.7844C15.6742 17.6711 15.5844 17.5891 15.4789 17.5891ZM15.5992 18.0766C15.5164 18.0766 15.4562 18.1437 15.4562 18.2187C15.4562 18.2937 15.5242 18.3617 15.5992 18.3617C15.6742 18.3617 15.7422 18.2937 15.7422 18.2187C15.7422 18.1437 15.6742 18.0766 15.5992 18.0766ZM15.5914 17.1766C15.5164 17.1766 15.4562 17.2367 15.4562 17.3117C15.4562 17.3867 15.5164 17.4461 15.5914 17.4461C15.6672 17.4461 15.7273 17.3867 15.7273 17.3117C15.7273 17.2367 15.6594 17.1766 15.5914 17.1766ZM15.1547 17.1164C15.0265 17.1164 14.9211 17.2211 14.9211 17.3492C14.9211 17.4766 15.0265 17.5812 15.1547 17.5812C15.2828 17.5812 15.3883 17.4766 15.3883 17.3492C15.3883 17.2211 15.2828 17.1164 15.1547 17.1164ZM15.4179 16.6664C15.3203 16.6664 15.2375 16.7492 15.2375 16.8461C15.2375 16.9437 15.3203 17.0266 15.4179 17.0266C15.5164 17.0266 15.5992 16.9437 15.5992 16.8461C15.5992 16.7492 15.5242 16.6664 15.4179 16.6664ZM15.3804 16.2687C15.3125 16.2687 15.2601 16.3211 15.2601 16.3891C15.2601 16.4562 15.3125 16.5086 15.3804 16.5086C15.4484 16.5086 15.5015 16.4562 15.5015 16.3891C15.5015 16.3211 15.4484 16.2687 15.3804 16.2687ZM13.4219 19.5539C13.1804 19.5539 12.9844 19.7492 12.9844 19.9891C12.9844 20.2289 13.1804 20.4242 13.4219 20.4242C13.6625 20.4242 13.8586 20.2289 13.8586 19.9891C13.8586 19.7492 13.6625 19.5539 13.4219 19.5539ZM11.1008 19.9742C10.7914 19.9742 10.5429 20.2219 10.5429 20.5289C10.5429 20.8367 10.7914 21.0844 11.1008 21.0844C11.4094 21.0844 11.6586 20.8367 11.6586 20.5289C11.6586 20.2219 11.4023 19.9742 11.1008 19.9742ZM11.7031 21.0914C11.4398 21.0914 11.2211 21.3094 11.2211 21.5719C11.2211 21.8344 11.4398 22.0516 11.7031 22.0516C11.9672 22.0516 12.1859 21.8344 12.1859 21.5719C12.1859 21.3094 11.9672 21.0914 11.7031 21.0914ZM12.7734 20.9492C12.525 20.9492 12.3289 21.1516 12.3289 21.3914C12.3289 21.632 12.532 21.8344 12.7734 21.8344C13.0148 21.8344 13.2179 21.632 13.2179 21.3914C13.2179 21.1516 13.0219 20.9492 12.7734 20.9492ZM13.6929 20.5445C13.4594 20.5445 13.2781 20.732 13.2781 20.957C13.2781 21.182 13.4664 21.3695 13.6929 21.3695C13.9187 21.3695 14.107 21.182 14.107 20.957C14.107 20.732 13.9265 20.5445 13.6929 20.5445ZM14.4164 20.057C14.2203 20.057 14.0695 20.2141 14.0695 20.4016C14.0695 20.5891 14.2281 20.7469 14.4164 20.7469C14.6047 20.7469 14.7625 20.5891 14.7625 20.4016C14.7625 20.2141 14.6117 20.057 14.4164 20.057ZM14.2351 19.1414C14.032 19.1414 13.8734 19.3062 13.8734 19.5016C13.8734 19.6969 14.039 19.8617 14.2351 19.8617C14.4312 19.8617 14.5969 19.6969 14.5969 19.5016C14.5969 19.3062 14.439 19.1414 14.2351 19.1414Z" fill="#283271"/>
<path d="M12.9093 16.8836C12.5773 16.8836 12.3062 17.1539 12.3062 17.4836C12.3062 17.8141 12.5773 18.0844 12.9093 18.0844C13.2406 18.0844 13.5117 17.8141 13.5117 17.4836C13.5117 17.1539 13.2406 16.8836 12.9093 16.8836ZM12.2085 15.8414C11.914 15.8414 11.6656 16.0813 11.6656 16.3813C11.6656 16.6813 11.907 16.9211 12.2085 16.9211C12.5093 16.9211 12.7507 16.6813 12.7507 16.3813C12.7507 16.0813 12.5093 15.8414 12.2085 15.8414ZM13.2859 15.2938C12.9921 15.2938 12.7585 15.5266 12.7585 15.8188C12.7585 16.1117 12.9921 16.3438 13.2859 16.3438C13.5796 16.3438 13.8132 16.1117 13.8132 15.8188C13.8132 15.5266 13.5718 15.2938 13.2859 15.2938ZM11.4851 15.0914C11.2359 15.0914 11.0406 15.2938 11.0406 15.5336C11.0406 15.7735 11.2437 15.9766 11.4851 15.9766C11.7257 15.9766 11.9296 15.7735 11.9296 15.5336C11.9296 15.2938 11.7335 15.0914 11.4851 15.0914ZM10.6789 14.7235C10.475 14.7235 10.3093 14.8891 10.3093 15.0914C10.3093 15.2938 10.475 15.4586 10.6789 15.4586C10.882 15.4586 11.0476 15.2938 11.0476 15.0914C11.0476 14.8891 10.882 14.7235 10.6789 14.7235ZM9.92495 14.6336C9.76714 14.6336 9.6312 14.761 9.6312 14.9266C9.6312 15.0914 9.75933 15.2188 9.92495 15.2188C10.0906 15.2188 10.2187 15.0914 10.2187 14.9266C10.2187 14.761 10.0835 14.6336 9.92495 14.6336ZM10.8445 14.1086C10.6859 14.1086 10.5656 14.236 10.5656 14.386C10.5656 14.536 10.6937 14.6641 10.8445 14.6641C10.9953 14.6641 11.1234 14.536 11.1234 14.386C11.1234 14.236 11.0023 14.1086 10.8445 14.1086ZM11.5453 13.5758C11.3945 13.5758 11.2742 13.6961 11.2742 13.8461C11.2742 13.9961 11.3945 14.1164 11.5453 14.1164C11.696 14.1164 11.8164 13.9961 11.8164 13.8461C11.8164 13.6961 11.7031 13.5758 11.5453 13.5758ZM10.9351 13.6133C10.814 13.6133 10.7164 13.711 10.7164 13.8313C10.7164 13.9508 10.814 14.0485 10.9351 14.0485C11.0554 14.0485 11.1531 13.9508 11.1531 13.8313C11.1531 13.711 11.0554 13.6133 10.9351 13.6133ZM10.4 13.7336C10.2945 13.7336 10.2039 13.8235 10.2039 13.9289C10.2039 14.0336 10.2945 14.1235 10.4 14.1235C10.5054 14.1235 10.596 14.0336 10.596 13.9289C10.596 13.8235 10.5125 13.7336 10.4 13.7336ZM10.1585 14.1539C10.0382 14.1539 9.94761 14.2516 9.94761 14.3641C9.94761 14.4766 10.0453 14.5735 10.1585 14.5735C10.2718 14.5735 10.3695 14.4766 10.3695 14.3641C10.3695 14.2516 10.2718 14.1539 10.1585 14.1539ZM9.47261 14.2141C9.36714 14.2141 9.27729 14.2961 9.27729 14.4086C9.27729 14.5211 9.36714 14.6039 9.47261 14.6039C9.57808 14.6039 9.6687 14.5211 9.6687 14.4086C9.6687 14.2961 9.57808 14.2141 9.47261 14.2141ZM9.79683 13.9438C9.71401 13.9438 9.65386 14.011 9.65386 14.086C9.65386 14.161 9.72183 14.2289 9.79683 14.2289C9.87261 14.2289 9.93979 14.161 9.93979 14.086C9.93979 14.011 9.87261 13.9438 9.79683 13.9438ZM9.00542 14.4164C8.93042 14.4164 8.87026 14.4766 8.87026 14.5516C8.87026 14.6266 8.93042 14.686 9.00542 14.686C9.0812 14.686 9.14136 14.6266 9.14136 14.5516C9.14136 14.4766 9.0812 14.4164 9.00542 14.4164ZM9.26167 14.6711C9.13354 14.6711 9.02808 14.7766 9.02808 14.9039C9.02808 15.0313 9.13354 15.136 9.26167 15.136C9.38979 15.136 9.49526 15.0313 9.49526 14.9039C9.49526 14.7766 9.38979 14.6711 9.26167 14.6711ZM8.68901 14.7461C8.59136 14.7461 8.50854 14.8289 8.50854 14.9266C8.50854 15.0235 8.59136 15.1063 8.68901 15.1063C8.78745 15.1063 8.87026 15.0235 8.87026 14.9266C8.87026 14.8289 8.78745 14.7461 8.68901 14.7461ZM8.31245 15.0688C8.24448 15.0688 8.19214 15.1211 8.19214 15.1891C8.19214 15.2563 8.24448 15.3086 8.31245 15.3086C8.38042 15.3086 8.43276 15.2563 8.43276 15.1891C8.43276 15.1211 8.38042 15.0688 8.31245 15.0688ZM12.4265 14.6414C12.1859 14.6414 11.9898 14.836 11.9898 15.0766C11.9898 15.3164 12.1859 15.511 12.4265 15.511C12.6679 15.511 12.864 15.3164 12.864 15.0766C12.864 14.836 12.6679 14.6414 12.4265 14.6414ZM14.0546 16.2539C13.7453 16.2539 13.4968 16.5016 13.4968 16.8086C13.4968 17.1164 13.7453 17.3641 14.0546 17.3641C14.3632 17.3641 14.6117 17.1164 14.6117 16.8086C14.6117 16.5016 14.3562 16.2539 14.0546 16.2539ZM14.657 15.286C14.3937 15.286 14.175 15.5039 14.175 15.7664C14.175 16.0289 14.3937 16.2461 14.657 16.2461C14.921 16.2461 15.1398 16.0289 15.1398 15.7664C15.1398 15.5039 14.921 15.286 14.657 15.286ZM13.9718 14.4836C13.7226 14.4836 13.5273 14.686 13.5273 14.9266C13.5273 15.1664 13.7304 15.3688 13.9718 15.3688C14.2125 15.3688 14.4164 15.1664 14.4164 14.9266C14.4164 14.686 14.2125 14.4836 13.9718 14.4836ZM13.1273 13.9438C12.8937 13.9438 12.7132 14.1313 12.7132 14.3563C12.7132 14.5813 12.9015 14.7688 13.1273 14.7688C13.3539 14.7688 13.5421 14.5813 13.5421 14.3563C13.5421 14.1313 13.3609 13.9438 13.1273 13.9438ZM12.2914 13.6664C12.0953 13.6664 11.9445 13.8235 11.9445 14.011C11.9445 14.1985 12.1031 14.3563 12.2914 14.3563C12.4796 14.3563 12.6375 14.1985 12.6375 14.011C12.6375 13.8235 12.4796 13.6664 12.2914 13.6664ZM11.5906 14.2516C11.3867 14.2516 11.2289 14.4164 11.2289 14.611C11.2289 14.8063 11.3945 14.9711 11.5906 14.9711C11.7867 14.9711 11.9523 14.8063 11.9523 14.611C11.9523 14.4164 11.7937 14.2516 11.5906 14.2516Z" fill="#283271"/>
<path d="M10.5055 16.1711C10.1734 16.1711 9.90234 16.4414 9.90234 16.7711C9.90234 17.1016 10.1734 17.3711 10.5055 17.3711C10.8367 17.3711 11.1078 17.1016 11.1078 16.7711C11.1078 16.4414 10.8367 16.1711 10.5055 16.1711ZM9.8875 17.3867C9.59375 17.3867 9.34453 17.6266 9.34453 17.9266C9.34453 18.2266 9.58594 18.4664 9.8875 18.4664C10.1891 18.4664 10.4297 18.2266 10.4297 17.9266C10.4297 17.6266 10.1891 17.3867 9.8875 17.3867ZM8.8625 16.7563C8.56875 16.7563 8.33516 16.9891 8.33516 17.2813C8.33516 17.5742 8.56875 17.8063 8.8625 17.8063C9.15625 17.8063 9.38984 17.5742 9.38984 17.2813C9.38984 16.9891 9.15625 16.7563 8.8625 16.7563ZM9.51797 18.5188C9.26953 18.5188 9.07344 18.7141 9.07344 18.9617C9.07344 19.2094 9.27734 19.4039 9.51797 19.4039C9.76719 19.4039 9.9625 19.2016 9.9625 18.9617C9.9625 18.7219 9.76719 18.5188 9.51797 18.5188ZM9.53359 19.5242C9.32969 19.5242 9.16406 19.6891 9.16406 19.8914C9.16406 20.0946 9.32969 20.2594 9.53359 20.2594C9.73672 20.2594 9.90234 20.0946 9.90234 19.8914C9.90234 19.6891 9.73672 19.5242 9.53359 19.5242ZM9.76719 20.3344C9.60859 20.3344 9.47266 20.4617 9.47266 20.6266C9.47266 20.7844 9.60078 20.9196 9.76719 20.9196C9.93281 20.9196 10.0609 20.7914 10.0609 20.6266C10.0531 20.4617 9.925 20.3344 9.76719 20.3344ZM8.83281 19.8164C8.67422 19.8164 8.55391 19.9446 8.55391 20.0946C8.55391 20.2446 8.68203 20.3719 8.83281 20.3719C8.98359 20.3719 9.11094 20.2446 9.11094 20.0946C9.11094 19.9446 8.99062 19.8164 8.83281 19.8164ZM8.01875 19.4789C7.86797 19.4789 7.73984 19.5992 7.73984 19.7492C7.73984 19.8992 7.86016 20.0196 8.01875 20.0196C8.17656 20.0196 8.29766 19.8992 8.29766 19.7492C8.29766 19.5992 8.16953 19.4789 8.01875 19.4789ZM8.3125 20.0789C8.19219 20.0789 8.09375 20.1766 8.09375 20.2969C8.09375 20.4164 8.19219 20.5141 8.3125 20.5141C8.43281 20.5141 8.53125 20.4164 8.53125 20.2969C8.53125 20.1766 8.43281 20.0789 8.3125 20.0789ZM8.65937 20.5071C8.55391 20.5071 8.46328 20.5969 8.46328 20.7016C8.46328 20.8141 8.55391 20.8969 8.65937 20.8969C8.76484 20.8969 8.85547 20.8071 8.85547 20.7016C8.85547 20.5969 8.76484 20.5071 8.65937 20.5071ZM9.16406 20.4914C9.04375 20.4914 8.95312 20.5891 8.95312 20.7016C8.95312 20.8141 9.05078 20.9117 9.16406 20.9117C9.27734 20.9117 9.375 20.8141 9.375 20.7016C9.375 20.5891 9.27734 20.4914 9.16406 20.4914ZM9.54062 21.0766C9.43516 21.0766 9.34453 21.1594 9.34453 21.2719C9.34453 21.3844 9.43516 21.4672 9.54062 21.4672C9.64609 21.4672 9.73672 21.3844 9.73672 21.2719C9.73672 21.1594 9.64609 21.0766 9.54062 21.0766ZM9.10391 21.0016C9.02109 21.0016 8.96094 21.0696 8.96094 21.1446C8.96094 21.2266 9.02812 21.2867 9.10391 21.2867C9.17891 21.2867 9.24687 21.2196 9.24687 21.1446C9.24687 21.0696 9.17891 21.0016 9.10391 21.0016ZM9.89531 21.4672C9.81953 21.4672 9.75937 21.5266 9.75937 21.6016C9.75937 21.6766 9.81953 21.7367 9.89531 21.7367C9.97031 21.7367 10.0305 21.6766 10.0305 21.6016C10.0305 21.5266 9.97031 21.4672 9.89531 21.4672ZM10.0758 20.9719C9.94766 20.9719 9.84219 21.0766 9.84219 21.2039C9.84219 21.3321 9.94766 21.4367 10.0758 21.4367C10.2039 21.4367 10.3094 21.3321 10.3094 21.2039C10.3094 21.0766 10.2039 20.9719 10.0758 20.9719ZM10.3773 21.5047C10.2789 21.5047 10.1961 21.5867 10.1961 21.6844C10.1961 21.7821 10.2789 21.8641 10.3773 21.8641C10.475 21.8641 10.5578 21.7821 10.5578 21.6844C10.5578 21.5867 10.4828 21.5047 10.3773 21.5047ZM10.7992 21.7594C10.7312 21.7594 10.6789 21.8117 10.6789 21.8797C10.6789 21.9469 10.7312 21.9992 10.7992 21.9992C10.8672 21.9992 10.9195 21.9469 10.9195 21.8797C10.9195 21.8117 10.8672 21.7594 10.7992 21.7594ZM8.64375 17.9492C8.40312 17.9492 8.20703 18.1438 8.20703 18.3844C8.20703 18.6242 8.40312 18.8188 8.64375 18.8188C8.88516 18.8188 9.08125 18.6242 9.08125 18.3844C9.08125 18.1438 8.88516 17.9492 8.64375 17.9492ZM9.3375 15.5641C9.02812 15.5641 8.77969 15.811 8.77969 16.1188C8.77969 16.4266 9.02812 16.6742 9.3375 16.6742C9.64609 16.6742 9.89531 16.4266 9.89531 16.1188C9.89531 15.811 9.63906 15.5641 9.3375 15.5641ZM8.12422 15.6391C7.86016 15.6391 7.64219 15.8563 7.64219 16.1188C7.64219 16.3813 7.86016 16.5992 8.12422 16.5992C8.38828 16.5992 8.60625 16.3813 8.60625 16.1188C8.60625 15.8563 8.39531 15.6391 8.12422 15.6391ZM7.74766 16.6813C7.49844 16.6813 7.30312 16.8836 7.30312 17.1242C7.30312 17.3641 7.50625 17.5664 7.74766 17.5664C7.98828 17.5664 8.19219 17.3641 8.19219 17.1242C8.19219 16.8836 7.99609 16.6813 7.74766 16.6813ZM7.66484 17.7313C7.43125 17.7313 7.25 17.9188 7.25 18.1438C7.25 18.3688 7.43828 18.5563 7.66484 18.5563C7.89062 18.5563 8.07891 18.3688 8.07891 18.1438C8.07891 17.9188 7.89844 17.7313 7.66484 17.7313ZM7.78516 18.6914C7.58906 18.6914 7.43828 18.8492 7.43828 19.0367C7.43828 19.2242 7.59688 19.3813 7.78516 19.3813C7.97344 19.3813 8.13203 19.2242 8.13203 19.0367C8.13203 18.8492 7.97344 18.6914 7.78516 18.6914ZM8.65937 18.9766C8.45547 18.9766 8.29766 19.1414 8.29766 19.3367C8.29766 19.5391 8.46328 19.6969 8.65937 19.6969C8.8625 19.6969 9.02109 19.5313 9.02109 19.3367C9.02109 19.1414 8.8625 18.9766 8.65937 18.9766Z" fill="#8D8E8E"/>
<path d="M2.28442 12.1211C2.28442 12.1961 2.34458 12.2633 2.42739 12.2633H20.5727C20.6477 12.2633 20.7157 12.1961 20.7157 12.1211C20.7157 12.0461 20.6477 11.9781 20.5727 11.9781H2.42739C2.34458 11.9781 2.28442 12.0383 2.28442 12.1211Z" fill="#8D8E8E"/>
<path d="M4.20542 10.8383L4.15308 11.0781C4.13823 11.1383 4.10776 11.1531 4.06245 11.1531H3.24136C3.00776 11.1531 2.87183 11.0336 2.87183 10.7711V8.85076C2.87183 8.79841 2.89448 8.78357 2.96245 8.78357H3.24917C3.31636 8.78357 3.33901 8.79841 3.33901 8.85076V10.7633H4.13042C4.19058 10.7633 4.22104 10.7781 4.20542 10.8383Z" fill="#8D8E8E"/>
<path d="M5.78052 10.8156L5.75083 11.0937C5.75083 11.1312 5.73521 11.1461 5.69067 11.1461H4.78599C4.55239 11.1461 4.41724 11.0258 4.41724 10.7633V8.85076C4.41724 8.80544 4.43208 8.78357 4.48442 8.78357H5.72036C5.75786 8.78357 5.78052 8.79841 5.77349 8.83591L5.74302 9.11326C5.74302 9.15076 5.72036 9.1656 5.68286 9.1656H4.89927V9.75857H5.62271C5.66802 9.75857 5.67505 9.77341 5.67505 9.81091L5.64536 10.0883C5.64536 10.1179 5.62271 10.1336 5.58521 10.1336H4.89927V10.7562H5.73521C5.77349 10.7633 5.78833 10.7781 5.78052 10.8156Z" fill="#8D8E8E"/>
<path d="M5.9765 11.0937C6.18744 10.2906 6.39135 9.5031 6.59447 8.87341C6.60931 8.81326 6.65463 8.78357 6.7226 8.78357H7.12181C7.20463 8.78357 7.2351 8.81326 7.25775 8.87341C7.45385 9.49607 7.67181 10.2906 7.88275 11.0937C7.89056 11.1312 7.87572 11.1461 7.83041 11.1461H7.46869C7.41556 11.1461 7.38588 11.1234 7.38588 11.0937L7.29525 10.6812H6.564C6.53431 10.8234 6.50385 10.9586 6.47416 11.1008C6.46635 11.1312 6.44369 11.1461 6.39838 11.1461H6.02181C5.9765 11.1461 5.96166 11.1312 5.9765 11.0937ZM7.20463 10.3133C7.13666 9.96091 7.03119 9.53357 6.93353 9.17341H6.91088C6.82025 9.53357 6.70775 9.96091 6.6476 10.3133H7.20463Z" fill="#8D8E8E"/>
<path d="M9.21716 10.2156C9.01326 10.2156 8.90779 10.1031 8.90779 9.90859V9.88594C8.90779 9.84844 8.92263 9.82578 8.96091 9.82578H9.66169C9.69919 9.82578 9.72185 9.84063 9.72185 9.87813V10.9063C9.72185 10.9883 9.69919 11.0336 9.63904 11.0563C9.47263 11.1313 9.19451 11.1758 8.93826 11.1758C8.32029 11.1758 8.04138 10.9281 8.04138 10.3813V9.57109C8.04138 8.98594 8.3656 8.74609 8.9906 8.74609C9.20154 8.74609 9.42029 8.77578 9.56326 8.81328C9.60857 8.82813 9.62341 8.84297 9.62341 8.89609V9.16563C9.62341 9.21094 9.59373 9.21797 9.54841 9.20313C9.41248 9.16563 9.21716 9.14297 9.0281 9.14297C8.72732 9.14297 8.51638 9.24063 8.51638 9.61563V10.3281C8.51638 10.5086 8.54607 10.6063 8.60623 10.6813C8.65935 10.7484 8.77185 10.7859 8.93826 10.7859C9.05857 10.7859 9.20154 10.7711 9.26951 10.7484V10.2156H9.21716Z" fill="#8D8E8E"/>
<path d="M10.3171 10.9961C10.1734 10.8687 10.1062 10.6586 10.1062 10.3734V8.83591C10.1062 8.80544 10.121 8.78357 10.1585 8.78357H10.5281C10.5656 8.78357 10.5804 8.79841 10.5804 8.83591V10.3281C10.5804 10.4711 10.596 10.5984 10.6632 10.6734C10.7164 10.7406 10.814 10.7859 10.9421 10.7859C11.0703 10.7859 11.1687 10.7484 11.2289 10.6734C11.2968 10.5906 11.3039 10.4711 11.3039 10.3281V8.83591C11.3039 8.80544 11.3265 8.78357 11.364 8.78357H11.7335C11.771 8.78357 11.7867 8.80544 11.7867 8.83591V10.3734C11.7867 10.6656 11.7109 10.8758 11.5531 11.0031C11.4093 11.1234 11.2132 11.1836 10.9421 11.1836C10.6632 11.1836 10.4523 11.1234 10.3171 10.9961Z" fill="#8D8E8E"/>
<path d="M13.5571 10.8156L13.5274 11.0937C13.5274 11.1312 13.5117 11.1461 13.4664 11.1461H12.5625C12.3289 11.1461 12.193 11.0258 12.193 10.7633V8.85076C12.193 8.80544 12.2086 8.78357 12.261 8.78357H13.4969C13.5344 8.78357 13.5571 8.79841 13.5492 8.83591L13.5196 9.11326C13.5196 9.15076 13.4969 9.1656 13.4594 9.1656H12.6758V9.75857H13.3992C13.4438 9.75857 13.4516 9.77341 13.4516 9.81091L13.4219 10.0883C13.4219 10.1179 13.3992 10.1336 13.361 10.1336H12.6758V10.7562H13.5117C13.5422 10.7633 13.5571 10.7781 13.5571 10.8156Z" fill="#8D8E8E"/>
<path d="M14.7781 10.9813C14.6274 10.8531 14.5446 10.6508 14.5446 10.3883V9.53359C14.5446 9.23359 14.6571 9.02344 14.8531 8.88828C14.9961 8.79063 15.1922 8.74609 15.418 8.74609C15.6446 8.74609 15.8555 8.79844 16.0063 8.90313C16.1867 9.03047 16.2922 9.24062 16.2922 9.53359V10.3883C16.2922 10.6813 16.1946 10.8836 16.0063 11.0188C15.8633 11.1234 15.6594 11.1758 15.411 11.1758C15.1547 11.1836 14.9289 11.1156 14.7781 10.9813ZM15.7047 10.6961C15.7797 10.6211 15.818 10.4938 15.818 10.3438V9.58594C15.818 9.41328 15.7727 9.30859 15.7047 9.23359C15.6446 9.17344 15.5461 9.14297 15.4258 9.14297C15.3055 9.14297 15.2071 9.17344 15.1399 9.23359C15.0641 9.30859 15.0266 9.41328 15.0266 9.58594V10.3438C15.0266 10.4938 15.0641 10.6211 15.1399 10.6961C15.2 10.7562 15.3055 10.7859 15.4258 10.7859C15.5461 10.7859 15.6446 10.7562 15.7047 10.6961Z" fill="#8D8E8E"/>
<path d="M18.3422 8.83591V11.1008C18.3422 11.1312 18.3195 11.1531 18.282 11.1531H18.0406C17.9726 11.1531 17.9429 11.1234 17.9203 11.0859L17.0758 9.62341H17.0609V11.0937C17.0609 11.1312 17.0461 11.1461 17.0008 11.1461H16.9781C16.7594 11.1461 16.639 11.0258 16.639 10.7633V8.83591C16.639 8.80544 16.6539 8.78357 16.6844 8.78357H16.9554C17.0086 8.78357 17.0383 8.80544 17.0609 8.84294L17.9047 10.2836H17.9203V8.8281C17.9203 8.7906 17.9351 8.77576 17.9656 8.77576H18.282C18.3273 8.78357 18.3422 8.79841 18.3422 8.83591Z" fill="#8D8E8E"/>
<path d="M20.1281 10.8156L20.0976 11.0937C20.0976 11.1312 20.0828 11.1461 20.0375 11.1461H19.1336C18.9 11.1461 18.764 11.0258 18.764 10.7633V8.85076C18.764 8.80544 18.7789 8.78357 18.832 8.78357H20.0679C20.1054 8.78357 20.1281 8.79841 20.1203 8.83591L20.0898 9.11326C20.0898 9.15076 20.0679 9.1656 20.0297 9.1656H19.2461V9.75857H19.9695C20.0148 9.75857 20.0226 9.77341 20.0226 9.81091L19.9922 10.0883C19.9922 10.1179 19.9695 10.1336 19.932 10.1336H19.2461V10.7562H20.075C20.1125 10.7633 20.1281 10.7781 20.1281 10.8156Z" fill="#8D8E8E"/>
<path d="M20.3234 2.31799H11.3266C11.1305 2.31799 10.9648 2.48284 10.9648 2.67737V7.36565C10.9648 7.56096 11.1305 7.72581 11.3266 7.72581H20.3234C20.5195 7.72581 20.6852 7.56096 20.6852 7.36565V2.67737C20.6852 2.48284 20.5273 2.31799 20.3234 2.31799Z" fill="url(#paint0_linear_1_105)"/>
<mask id="mask0_1_105" style="mask-type:luminance" maskUnits="userSpaceOnUse" x="0" y="0" width="23" height="30">
<path d="M23 0H0V29.8H23V0Z" fill="black" fill-opacity="0.4"/>
</mask>
<g mask="url(#mask0_1_105)">
<mask id="mask1_1_105" style="mask-type:luminance" maskUnits="userSpaceOnUse" x="0" y="0" width="23" height="30">
<path d="M23 0H0V29.8H23V0Z" fill="white"/>
</mask>
<g mask="url(#mask1_1_105)">
<path d="M11.2289 5.00315C11.2289 5.00315 11.2437 5.00315 11.2586 5.00315C12.3289 4.96565 20.4141 4.68831 20.4141 4.68831C20.55 4.68049 20.6852 4.58284 20.6852 4.41018V2.67737C20.6852 2.48284 20.5195 2.31799 20.3234 2.31799H11.3266C11.1305 2.31799 10.9648 2.48284 10.9648 2.67737V5.28049C10.9648 5.25784 10.9727 5.02581 11.2289 5.00315Z" fill="url(#paint1_linear_1_105)"/>
</g>
</g>
<path d="M7.71724 7.34297C7.78521 7.37344 7.91333 7.41797 8.07896 7.41797C8.36567 7.42578 8.51646 7.32031 8.62896 7.06563L10.1516 3.69063C10.0907 3.66016 9.94771 3.62266 9.83442 3.61563C9.63911 3.61563 9.37505 3.65313 9.20942 4.05L8.71177 5.20547L7.74771 3.64531C7.68755 3.63047 7.53677 3.6 7.42349 3.6C7.07661 3.6 6.88833 3.72813 6.69224 3.9375L5.75083 4.95781L6.50396 6.14297C6.64771 6.36016 6.82817 6.47266 7.12974 6.47266C7.32583 6.47266 7.49146 6.42813 7.56646 6.39063L6.65474 5.02578L7.29536 4.34297L8.35005 5.99297L7.71724 7.34297ZM5.72036 6.06016C5.72036 6.30781 5.6227 6.45078 5.13286 6.45078C5.06489 6.45078 5.01255 6.45078 4.95942 6.43516V3.13516C4.95942 2.8875 5.04224 2.625 5.53989 2.625C5.60005 2.625 5.66802 2.63281 5.72036 2.63984V6.06016ZM4.71099 5.56563C4.71099 6.03047 4.40942 6.36797 3.78364 6.43516C3.33911 6.48828 2.68364 6.42813 2.37505 6.39063C2.36724 6.33828 2.35942 6.27813 2.35942 6.22578C2.35942 5.82031 2.57817 5.73047 2.78911 5.73047C3.00005 5.73047 3.33911 5.76797 3.59536 5.76797C3.87427 5.76797 3.95708 5.67031 3.95708 5.58828C3.95708 5.47578 3.84458 5.42266 3.63286 5.38516L3.04536 5.27266C2.55552 5.18281 2.29224 4.84531 2.29224 4.48516C2.29224 4.05 2.60083 3.69063 3.21099 3.62266C3.67114 3.57031 4.22817 3.63047 4.53755 3.66797C4.54536 3.72031 4.55239 3.76563 4.55239 3.825C4.55239 4.23047 4.34145 4.32031 4.13052 4.32031C3.97192 4.32031 3.72349 4.29063 3.44458 4.29063C3.15864 4.29063 3.03755 4.37266 3.03755 4.4625C3.03755 4.56016 3.15083 4.60547 3.33208 4.63516L3.89692 4.74063C4.46177 4.83828 4.71099 5.16016 4.71099 5.56563Z" fill="url(#paint2_linear_1_105)"/>
<mask id="mask2_1_105" style="mask-type:luminance" maskUnits="userSpaceOnUse" x="0" y="0" width="23" height="30">
<path d="M23 0H0V29.8H23V0Z" fill="black" fill-opacity="0.25098"/>
</mask>
<g mask="url(#mask2_1_105)">
<mask id="mask3_1_105" style="mask-type:luminance" maskUnits="userSpaceOnUse" x="0" y="0" width="23" height="30">
<path d="M23 0H0V29.8H23V0Z" fill="white"/>
</mask>
<g mask="url(#mask3_1_105)">
<path d="M10.1516 3.68281L9.5938 4.92031C9.57817 4.95078 9.51099 5.06328 9.36021 5.06328C9.32271 5.06328 8.84771 5.07813 8.84771 5.07813C8.75708 5.07813 8.72739 5.16797 8.72739 5.16797L9.20942 4.03516C9.37505 3.6375 9.63911 3.6 9.83442 3.6C9.94771 3.61563 10.0907 3.65313 10.1516 3.68281ZM8.68911 5.16016L7.74771 3.6375C7.68755 3.62266 7.53677 3.59297 7.42349 3.59297C7.07661 3.59297 6.88833 3.72031 6.69224 3.93047L5.75083 4.95078L5.82583 5.06328C5.8563 5.10781 5.92427 5.17578 6.05239 5.17578C6.09692 5.17578 6.54927 5.16016 6.58677 5.16016C6.70005 5.16016 6.78286 5.20547 6.82036 5.26563L6.65474 5.01797L7.29536 4.33516L7.72505 5.01016C7.80786 5.10781 7.92114 5.11563 7.94302 5.11563C7.96567 5.11563 8.53833 5.09297 8.56099 5.09297C8.61411 5.09297 8.65942 5.11563 8.68911 5.16016ZM5.53208 2.625C5.03442 2.625 4.95161 2.8875 4.95161 3.13516V5.40078C4.95161 5.31016 5.01958 5.21328 5.13989 5.20547C5.22349 5.20547 5.45708 5.19063 5.51724 5.19063C5.59224 5.19063 5.70552 5.13828 5.71333 4.99531V2.64766C5.66021 2.63281 5.59224 2.625 5.53208 2.625ZM3.88208 4.73281L3.32427 4.62813C3.1438 4.59766 3.03052 4.55312 3.03052 4.45547C3.03052 4.35781 3.15083 4.28281 3.43755 4.28281C3.71646 4.28281 3.96489 4.3125 4.12271 4.3125C4.32661 4.3125 4.54536 4.22266 4.54536 3.81797C4.54536 3.76562 4.53755 3.7125 4.52974 3.66016C4.22114 3.62266 3.66333 3.5625 3.20396 3.61563C2.59302 3.68281 2.28442 4.04297 2.28442 4.47813C2.28442 4.70313 2.38208 4.91328 2.57817 5.07031C2.72896 5.16797 2.87192 5.20547 3.03052 5.23516C3.15864 5.25781 3.44458 5.27266 3.65552 5.26563C3.72349 5.26563 4.22114 5.25078 4.32661 5.24297C4.57505 5.23516 4.71099 5.44531 4.70317 5.66328V5.65547C4.70317 5.62578 4.70317 5.60313 4.70317 5.57266C4.71099 5.16016 4.46177 4.83828 3.88208 4.73281Z" fill="url(#paint3_linear_1_105)"/>
</g>
</g>
<path d="M14.6875 5.05544C14.6875 5.88826 14.1 6.38279 13.4515 6.38279C13.0671 6.38279 12.7507 6.2031 12.5625 5.94763V6.19529C12.5625 6.30076 12.5023 6.36013 12.3289 6.36013C12.2539 6.36013 12.1703 6.34529 12.1257 6.33826V3.03044C12.1257 2.93279 12.1859 2.8656 12.3593 2.8656C12.4343 2.8656 12.5171 2.88044 12.5625 2.88748V4.17029C12.7507 3.9156 13.0601 3.73513 13.4515 3.73513C14.1 3.7281 14.6875 4.22263 14.6875 5.05544ZM14.2429 5.05544C14.2429 4.49294 13.8664 4.11794 13.3687 4.11794C13.0296 4.11794 12.7132 4.31248 12.5703 4.59763V5.52029C12.7132 5.80544 13.0296 6.00076 13.3687 6.00076C13.8734 6.00076 14.2429 5.61794 14.2429 5.05544ZM17.5359 5.21326H15.5539C15.614 5.70779 15.9531 5.98513 16.4656 5.98513C16.6843 5.98513 16.8578 5.9406 17.0156 5.88826C17.1289 5.85076 17.1742 5.83513 17.2195 5.83513C17.3398 5.83513 17.4226 5.93279 17.4 6.17263C17.1664 6.27029 16.8195 6.38279 16.4507 6.38279C15.6515 6.38279 15.1093 5.84294 15.1093 5.04763C15.1093 4.28279 15.682 3.73513 16.3828 3.73513C17.1742 3.73513 17.5585 4.34294 17.5585 4.9656C17.5507 5.03279 17.5429 5.12263 17.5359 5.21326ZM15.546 4.87576H17.121C17.1062 4.4406 16.8273 4.1031 16.3679 4.1031C15.9757 4.09529 15.614 4.3656 15.546 4.87576ZM19.6304 6.2031C19.4046 6.30779 19.1484 6.37576 18.8921 6.37576C18.3875 6.37576 18.0781 6.08279 18.0781 5.58826V3.3906C18.0781 3.2781 18.146 3.2031 18.3117 3.2031C18.3875 3.2031 18.4703 3.21794 18.5156 3.23279V3.78748H19.5101C19.5171 3.82498 19.525 3.89998 19.525 3.96013C19.525 4.11794 19.457 4.17029 19.3671 4.17029H18.5156V5.55076C18.5156 5.84294 18.6507 5.99294 18.9375 5.99294C19.1937 5.99294 19.3367 5.88044 19.457 5.88044C19.5929 5.88826 19.6531 5.99294 19.6304 6.2031Z" fill="white"/>
<defs>
<linearGradient id="paint0_linear_1_105" x1="15.8266" y1="2.31727" x2="15.8266" y2="7.72832" gradientUnits="userSpaceOnUse">
<stop offset="0.4" stop-color="#FF0000"/>
<stop offset="1" stop-color="#D42321"/>
</linearGradient>
<linearGradient id="paint1_linear_1_105" x1="15.8601" y1="4.9268" x2="15.7664" y2="2.23162" gradientUnits="userSpaceOnUse">
<stop stop-color="white"/>
<stop offset="1" stop-color="white" stop-opacity="0.25098"/>
</linearGradient>
<linearGradient id="paint2_linear_1_105" x1="6.21542" y1="2.62872" x2="6.21542" y2="7.41708" gradientUnits="userSpaceOnUse">
<stop stop-color="#002A91"/>
<stop offset="0.8" stop-color="#002672"/>
</linearGradient>
<linearGradient id="paint3_linear_1_105" x1="6.25622" y1="5.16555" x2="6.1932" y2="3.35296" gradientUnits="userSpaceOnUse">
<stop stop-color="white"/>
<stop offset="1" stop-color="white" stop-opacity="0.25098"/>
</linearGradient>
</defs>
</svg>
