<svg width="24" height="30" viewBox="0 0 24 30" fill="none" xmlns="http://www.w3.org/2000/svg">
<g clip-path="url(#clip0_1_12)">
<path d="M17.1261 29.7087C16.9523 29.121 16.8143 28.638 16.7121 28.2215C15.5367 28.7044 14.466 29.2589 13.3237 29.6039C11.2488 30.2249 9.20958 30.0869 7.23939 29.1899C6.82542 29.0162 6.72065 28.776 6.78965 28.3262C7.20362 26.3203 7.37738 24.3526 6.85864 22.3467C6.82287 22.2419 6.78965 22.1039 6.75387 22.0017C6.75387 21.9659 6.68488 21.9327 6.61588 21.7947C5.5784 23.3152 4.47193 24.7334 2.98726 25.9089C1.8118 23.3509 1.8118 20.724 2.15677 17.9591C1.43105 18.1661 0.774316 18.3731 0.0128174 18.5801C0.288796 16.1601 1.18829 14.121 2.60396 12.1865C2.15422 12.0818 1.77346 12.0128 1.32627 11.9438C2.22576 10.1116 3.47023 8.62692 5.16188 7.34668C4.8859 8.66014 4.95489 9.76661 6.09459 10.5613C5.98982 10.1806 5.8876 9.79983 5.81861 9.38586C5.78283 9.0741 5.78283 8.76491 5.81861 8.48637C6.02559 7.3799 6.82031 6.93015 7.89357 7.24191C8.10055 7.3109 8.30754 7.3799 8.58607 7.51789C8.27432 6.75639 7.75558 6.44719 7.13462 6.16865C7.13462 6.09966 7.13462 6.06388 7.09885 5.99489C8.10055 5.68313 9.06903 5.30238 10.1065 5.06218C11.006 4.8552 11.9719 4.85519 12.9072 4.75042C13.8067 4.64565 14.4966 4.99318 15.0844 5.64991C15.2914 5.8569 15.4983 6.06388 15.7411 6.27087C15.7769 6.23509 15.8459 6.23509 15.8791 6.20187C15.8101 5.8569 15.7411 5.54514 15.6721 5.16439C15.7769 5.16439 15.8791 5.16439 15.9839 5.20017C17.0546 5.51192 18.092 5.92589 18.9557 6.65162C19.0937 6.75639 19.3007 6.89438 19.3365 7.06559C19.5435 7.75809 19.7172 8.48382 19.9242 9.14054C18.9225 8.44804 17.885 7.72232 16.7786 6.96337C16.6048 7.48211 16.5026 7.86286 16.3646 8.27683C15.5699 7.79387 14.8774 7.34412 14.1517 6.96337C13.8757 6.82538 13.4949 6.75639 13.1832 6.82538C11.9745 7.03237 10.8322 7.48211 9.79476 8.34583C9.96852 8.48382 10.1397 8.58859 10.4157 8.79557C9.65421 9.17632 8.99748 9.52129 8.4813 10.2828C9.38079 10.1448 9.483 10.7325 9.75898 11.2513C10.2087 12.1508 11.0034 12.6005 12.0052 12.6337C13.2138 12.6695 14.4251 12.6337 15.6695 12.6337C15.3246 12.253 14.908 11.8722 14.5299 11.4583C14.1159 10.9753 13.5971 10.8015 12.9736 10.8705C12.1099 10.9395 11.2794 10.7325 10.5895 10.178C11.558 9.03833 12.4549 9.00255 14.3919 10.04C14.7036 9.86627 15.0128 9.72828 15.3246 9.55707C15.3603 9.66184 15.3936 9.69506 15.3936 9.69506C14.9796 10.5588 14.9796 10.5588 15.6695 11.2513C16.0835 11.6652 16.4643 12.115 16.845 12.529C17.3638 12.4242 17.8825 12.2862 18.4012 12.2862C18.92 12.2504 19.4387 12.3552 20.0264 12.391C19.2649 11.5605 18.506 10.8015 17.7445 10.0068C17.7803 9.93782 17.8493 9.86882 17.8825 9.79983C18.1585 9.97359 18.4345 10.1116 18.7462 10.2828C19.0912 10.2138 19.2982 9.52129 19.7837 10.0068C20.1287 10.3518 20.0954 10.6993 19.7479 11.1465C20.0239 11.4583 20.3356 11.7342 20.6474 12.115C20.7164 11.8722 20.7522 11.77 20.8212 11.632H20.9259C23.4149 15.1584 24.1406 18.9608 22.7224 23.2104C22.3774 22.8296 22.0656 22.5179 21.6849 22.1397C21.4421 23.7649 21.0281 25.1806 20.2334 26.4608C19.477 27.7743 18.4396 28.845 17.1261 29.7087ZM13.2879 15.5034C13.7019 16.2981 14.1184 17.0238 14.4634 17.7496C14.6372 18.1303 14.8774 18.1993 15.2249 18.0945C16.4336 17.7828 17.3689 17.0238 18.3348 16.2624C18.3706 16.2266 18.4396 16.1576 18.4396 16.0886C18.4396 15.5698 18.5086 15.0511 18.4038 14.5681C18.368 14.3612 17.9208 14.2564 17.6781 14.0852C17.5043 13.9804 17.3663 13.8424 17.1951 13.8092C16.9523 13.7402 16.6764 13.6354 16.4336 13.7044C15.2581 14.052 14.2922 14.7445 13.2879 15.5034ZM15.4677 19.6508C15.6057 19.9625 15.8484 20.3433 16.0196 20.7572C16.1576 21.069 16.3314 21.138 16.6074 21C17.1261 20.724 17.6448 20.4813 18.2326 20.2053L18.4396 21.8637C18.5086 21.8637 18.5776 21.8637 18.6133 21.8279C19.408 21.207 19.9268 20.3765 19.9958 19.408C20.0316 18.9583 19.7198 18.3015 19.3391 18.0588C19.0273 17.8518 18.3373 17.954 17.9566 18.1635C17.1261 18.5111 16.3314 19.0988 15.4677 19.6508ZM20.6167 13.707C20.236 13.9497 19.96 14.1567 19.6483 14.3637C19.5435 14.4327 19.4413 14.5707 19.4413 14.6755C19.1295 16.0247 19.9242 16.8884 20.7547 17.8211C21.3092 16.4361 21.1355 15.0894 20.6167 13.707Z" fill="#3B2050"/>
<path d="M15.0179 0.0204468C15.0869 1.05793 15.1559 1.95486 15.2607 2.95912C15.8484 2.30239 16.3314 1.78365 16.8501 1.23169L16.9549 1.33646C16.7479 2.33816 16.5051 3.37564 16.2624 4.41312C12.805 3.54941 9.48811 3.93016 6.30924 5.62181C5.85949 4.62011 5.37653 3.6874 4.85779 2.54515C5.58351 2.99489 6.20702 3.40886 6.93274 3.85861C6.79476 2.89012 6.65677 1.99319 6.483 0.988931C7.58947 1.75043 8.55796 2.40716 9.59288 3.13288C9.93786 2.0954 10.2854 1.12692 10.6636 0.0230023C11.2845 0.991486 11.839 1.8552 12.4268 2.82368C13.3237 1.88586 14.1184 1.02215 15.0179 0.0204468Z" fill="#3B2050"/>
</g>
<defs>
<clipPath id="clip0_1_12">
<rect width="23.4583" height="30" fill="white"/>
</clipPath>
</defs>
</svg>
